<svg xmlns="http://www.w3.org/2000/svg" width="331.672" height="167.144" viewBox="0 0 331.672 167.144">
  <title>28</title>
  <g>
    <path d="M271.868,72.921c2.051.055,3.375,2.185,5.724,1.712,2.427-.488,4.986-.28,7.474-.509,2.366-.218,4.714-.619,7.072-.917a5.831,5.831,0,0,1,2.03-.111c5.9,1.456,11.948.606,18.115,1.046-.225,1.242-.666,2.549,1.125,2.84a49.709,49.709,0,0,1,7.013,1.566l-4.206.411,1.17,1.081h-8.412l-.012.37,10.678,2.738c-.963,3.136-3.38,3.107-6.323,3.51l2.986,1.432q-.005.292-.01.583l-12.539,1.11c2.269,1.417,4.423.684,6.414.947,1.2.158,1.2.1,2.083,1.87H304.7c1.715,1.379,1.718,1.347,4.067,1.572a30.166,30.166,0,0,1,4.662.8c-2.588.133-5.181.2-7.758.45-.51.049-.956.769-2.022,1.689,2.069.266,3.458.472,4.852.619,2.487.262,4.98.469,7.466.739.879.1,1.993.072,1.891,1.409-.088,1.159-.984,1.387-1.981,1.4-.195,0-.387.174-.615.284,1.021.9,3.731-.509,3.335,2.513l-16.728,2.472c6.373.435,12.31-.545,18,2.756l-10.277,1c3.921,2.257,8.239-.124,12.428,2.565l-3.917,1c1.086.589,2.775.823,1.775,2.646-2.863.836-6.326-1.23-8.912,1.693,2.7.721,5.911.386,8.393,3.112l-2.2.68.259,1.888h-3.839c.635,1.76,3.216,1.631,3.237,4.005l-2.687.386,2.819,3.11-3.252.727c1.1.85,2.206,1.805,3.415,2.605,1.157.766,3.575-.262,3.268,2.39l4.156,1,.021.885-4.586,1.116,6.8,3.477-.26.59-7.759-.548c2.265,2.157,5.745,1.116,7.336,3.749-1.189,1.892-3.1.585-4.725,1.352l4.183,1.61-.061.372h-4.509l-.32,1.89c-2.574.858-2.574.858-2.759,3.905l6.8.37-3.373.792,3.5.638c-.543,1.777-1.963,1.828-3.483,1.725-.967-.065-1.982-.463-2.548.957-.171.43-1.317.64-2.026.663-10.556.347-21.128.4-31.666,1.027-9.745.579-19.445,1.87-29.181,2.628a118.686,118.686,0,0,1-14.313.284c-10.153-.44-20.212.83-30.315,1.276-2.5.11-4.992.274-7.488.271a302.166,302.166,0,0,1-37.415-2.391c-4.408-.556-8.814-.679-13.216-.972-3.786-.252-7.594-.646-11.409-.752-2.726-.076-5.458,0-8.179-.158-8.729-.491-17.459-.984-26.177-1.626-4.058-.3-8.082-1.033-12.137-1.394-2.02-.18-4.078.123-6.114.059-4.526-.143-9.053-.327-13.574-.591a54.829,54.829,0,0,0-13.819,1.4c-6.929,1.362-13.892,2.062-20.937.943a4.83,4.83,0,0,0-1.684-.014c-4.089.834-8.16.374-12.18-.331-3.381-.593-6.7-1.562-10.042-2.365q-.007-.354-.013-.708l6.517-.568q.027-.365.053-.729l-5.559-1.092a2.342,2.342,0,0,1,2.927-.8c2.669.708,4.374-.155,5.337-2.688.155-.409.4-.786.863-1.691a36.016,36.016,0,0,0-6.159-.223c-2.408.325-2.435-2.685-4.425-2.994a8.752,8.752,0,0,0,2.373.06c.357-.084.552-.864,1.162-1.921h7.654c.121-2.107-1.191-2.417-2.384-2.565a35.642,35.642,0,0,0-3.745.023c-1.057-.018-2.112-.132-3.168-.2q-.026-.4-.051-.8c.955-.273,2.593-.337,2.752-.854.933-3.042,2.366-.66,3.571-.494,1.392-.8,2.014-3.308,4.409-1.991.125.069.612-.521,1.126-.979l-3.139-2.721a21.194,21.194,0,0,1-2.3,1.258,2.832,2.832,0,0,1-1.555.148c-.824-2.4-3.211-1.327-5.162-2.2l4.715-1.074c-1.394-3.308-4.74-1.582-6.537-3.213-2.015-1.83-4.641-1.664-7.093-1.9-2.413-.235-4.9.151-7.242-.96,6,.22,11.731-1.266,18.231-2.117-2.051-1.431-4.1-2.139-4.808-3.53-.987-1.943-4.029-.482-4.131-3.406,2.566-3.565,1.673-7.042-1.94-10.445l8.034-.633q0-.331,0-.662l-8.713-1.222q0-.307,0-.614l5.551-2.092c-2.348-1.347-4.79-.608-7.033-1.413L5.214,98.184l4.087-1.6-1.874-4.02c.6-3.691,3.1-5.721,7.589-5.878A4.881,4.881,0,0,0,10.734,84.8a60.316,60.316,0,0,1-6.459-.332A2.472,2.472,0,0,1,2.54,82.895c-.11-1.006.691-1.088,1.814-1.162,3.6-.236,7.364-.2,10.677-2.782A13.874,13.874,0,0,0,7,78.468c-2.488.63-4.642-.433-6.96-.637Q.021,77.377,0,76.923l8.47-1.611c-.269-1.368-1.11-1.305-2.024-1.429-1.749-.237-3.593-2.647-3.064-4.216a3.509,3.509,0,0,1,2.2-1.757c3.358-.927,3.38-.85,4.717-3.819-.688-.664-2.566-.006-2.09-2.122l3.973-.556q.008-.415.016-.83C9.061,59.41,5.428,61.25,1.933,59.34c.8-.213,1.233-.486,1.561-.392,3.082.882,5.672-.364,8.278-1.74,1.35-.713,2.8-1.239,4.631-2.036a7.509,7.509,0,0,0-1.626-.6c-2.525-.2-4.16-1.1-4.612-3.975-.364-2.323-.167-3.306,2.12-3.827a23.52,23.52,0,0,1,2.532-.289,13.067,13.067,0,0,1-.481-1.561,9.525,9.525,0,0,1-.016-1.5l-8.949-.549-.162-.847,6.2-2.721c-.131-1.367-.23-2.4-.316-3.29l3.327-1.943-5.9-2.986c.9-1.017,1.637-1.955,2.484-2.782.623-.608,1.427-.97.7-2.111-.122-.19.875-1.429,1.551-1.706a8.926,8.926,0,0,1,2.93-.071L15,22.5c1.131-2.622,4.555.156,5.884-2.673l-7.976-2.139,6.644-2.533L17.8,13.863l1-2.713c1.627-.121,3.515.09,4.734-1.716a2.063,2.063,0,0,1,1.551-.588c2.926.066,4.845-2.1,7.254-3.171.194-.086.32-.319.488-.473,1.693-1.561,4.253.735,6.1-1.732,1.338-1.789,4.018-1.058,6.336-.839a67.024,67.024,0,0,0,11.844-.11c8.01-.672,15.985-1.766,24-2.373,4.276-.324,8.6-.023,12.906.045,2.707.043,5.413.173,8.12.268,4.4.153,8.843,0,13.2.537,6.4.788,12.835.987,19.25,1.465,5.532.413,11.1.307,16.653.482,3.627.114,7.249.363,10.876.473,3.064.093,6.133.015,9.2.123,2.034.072,4.062.319,6.09.522,4.945.495,9.879,1.181,14.836,1.477,8.247.493,16.511,1.072,24.761.994,7.139-.068,14.263-1.138,21.407-1.513,8.049-.422,16.131-.995,24.164-.664,4.984.205,9.662-.625,14.48-1.333,5.145-.756,10.378-.939,15.579-1.274,5.633-.362,11.271-.756,16.912-.87,6.811-.138,13.628-.008,20.442.049a2.81,2.81,0,0,1,1.7.79C323.194,3.785,314.587,3.486,306,3.388q-.036.41-.071.821a17.8,17.8,0,0,0,2.291.276q5.947-.031,11.894-.148c1.418-.027,2.1.615,2.106,2.014a23.2,23.2,0,0,0-4.464.815,17.545,17.545,0,0,0-3.39,2.26c.991,1.946,2.025,3.717,2.813,5.591.939,2.233-.9,3.972-1.45,6.437l10.229,3.51c-3.6,1.234-6.829-.392-9.643,1.426l1.233,2.19L311.6,31.924l5.091.5,1.595,3.376-4.056.861c1.725,2.63,4.712,1.157,6.655,2.38.415.986.081,1.527-.99,1.539-1.25.014-2.5-.041-3.752-.053a7.852,7.852,0,0,0-3.324.486l1.629,1.042L313.085,43.6l7.394,3.921A22.914,22.914,0,0,1,317,49.613a16.19,16.19,0,0,1-4.2.913,14.693,14.693,0,0,0-4.491.688,12.461,12.461,0,0,0,2.221.763c4.023.6,4.027.571,4.608,4.466l1.967.9-1.533,2.687-2.179-1.876.182,1.944-7.179,1.238c1.025.639,1.545,1.19,2.139,1.288,1.446.239,2.926.277,4.394.379,1.814.126,3.633.223,5.175,2.146l-4.368,3.544,4.722.952c-.847.392-1.35.82-1.862.831-3.283.07-6.568.05-9.853.055-.223,0-.447-.049-.67-.055-1.258-.034-1.86,2.219-3.45,1.006a4.471,4.471,0,0,0-2.869-1.243c-.88-.013-2.137-.16-2.581.333-2.02,2.246-4.619,1.311-6.955,1.468C284.107,72.447,277.984,72.641,271.868,72.921Zm38.717-27.1-.012-.323h-2.9q.008.226.017.452Zm-46.7,29.048.052.291a5.8,5.8,0,0,0,1.226-.02,4.444,4.444,0,0,0,1-.5l-.227-.45Z" fill="#262626"/>
    <path d="M326.633,154.82l1.824.8-.342.736-1.8-.854Z" fill="#262626"/>
    <path d="M307.179,71.425h1.438l-.007.227-1.434-.068Z" fill="#262626"/>
  </g>
</svg>
