<svg xmlns="http://www.w3.org/2000/svg" width="331.672" height="216.164" viewBox="0 0 331.672 216.164">
  <title>35</title>
  <path d="M330.132,146.441a20.012,20.012,0,0,0-1.855-1.69c-2.978-2.6-6.747-3.729-10.2-5.453-.965-.482-1.932-.958-2.809-1.393,1.718-2.9,3.016-5.545,4.732-7.881,2.222-3.025,3.339-6.658,5.9-9.53,2.813-3.159,2.521-5.9-.6-8.776a44.3,44.3,0,0,0-8.1-6.414c-5.747-3.2-11.75-5.941-17.709-8.743-2.691-1.265-5.529-2.218-8.837-3.525,1.083-.384,1.631-.577,2.179-.773a14.031,14.031,0,0,0,7.712-6.536c.97-1.722,1.756-3.547,2.728-5.268,1.64-2.906,3.414-5.737,5.034-8.653,1.406-2.53,1.1-4.952-.51-7.384-2.233-3.37-5.438-5.459-8.887-7.3-.97-.518-1.933-1.049-3.015-1.638.588-1.26.975-2.23,1.475-3.138,2.66-4.832,5.362-9.641,8.022-14.472,1.421-2.58,1.162-4.449-1-6.414a15.776,15.776,0,0,0-3.326-2.342c-2.875-1.481-5.772-2.94-8.75-4.193C276.757,18.383,260.95,12.6,244.4,9.049c-2.731-.585-5.449-1.236-8.1-1.84-.067-3.985-.818-4.936-4.477-5.921a10.341,10.341,0,0,0-1.84-.383A216.075,216.075,0,0,0,197.665.4c-5.329.373-10.659.739-15.993,1.029-6.8.37-13.616.464-20.4,1.033-10.743.9-21.495,1.854-32.18,3.261-5.988.789-11.871,2.448-17.754,3.907-1.763.437-3.31,1.688-5.055,2.269-2.174.724-4.444,1.17-6.685,1.681-4.689,1.069-9.431,1.935-14.067,3.2s-9.177,2.834-13.72,4.389C65.79,23.227,59.7,25.158,53.824,27.6c-7.633,3.166-15.118,6.7-22.6,10.215C26.086,40.224,20.732,42.225,16,45.447c-1.384.942-2.759,1.9-4.1,2.9a3.232,3.232,0,0,0-1.31,3.325,32.468,32.468,0,0,1,.13,9.278,20,20,0,0,0,.441,4.247,4.334,4.334,0,0,1-.028,1.394c-.514,2.21.027,3.178,2.246,3.322a48.512,48.512,0,0,0,5.278-.2,12.142,12.142,0,0,0-4.675-.681c-1.455.059-.862-1.56-1.756-1.886.593-.51,1.138-1.384,1.785-1.468,2.969-.385,5.967-.549,8.9-.788,1.028,1.968-.432,2.975-1.087,4.127a8.9,8.9,0,0,1,1.563,5.319c.189,3.854.257,7.716.524,11.565A14.141,14.141,0,0,0,24.69,89c2.371,1.014,3.987,2.118,5.711,2.326s3.575-.473,5.733-.823c-.466,3.072-.888,5.708-1.262,8.35-.314,2.222-1.59,3.406-3.7,4.116a79.536,79.536,0,0,0-18.65,9.469c-1.433.952-3.035,1.955-2.885,4.142.314,4.576.519,9.159.877,13.73.175,2.227.125,2.409-2.106,3.552-2.04,1.045-4.036,2.178-6.029,3.31-2.016,1.145-2.43,2.968-2.105,5.111a18.363,18.363,0,0,1,.332,3.4c-.16,4.268-.457,8.532-.6,12.8a10.223,10.223,0,0,0,.561,2.584c8.874,3.583,17.991,1.3,26.964,1.842-.149.435-.159.673-.283.794-3.134,3.049-5.442,6.38-4.024,11.092a7.127,7.127,0,0,1,.008,1.564c.315,5.58-1.178,11.222.574,16.751-.95,2,.559,2.669,1.87,3.426.13.075.376-.052.622-.095l-.211-1.02c4.686-2.232,9.685-2.477,15.115-2.824-1.076,3.7-1.945,6.9-2.947,10.069-1.572,4.965-1.541,5.115,2.993,7.06.386,3.672.541,3.764,4.468,3.745,3.225-.015,6.461.252,9.676.088,12.525-.637,25.124-.335,37.511-2.826a18.035,18.035,0,0,1,2.5-.278c7.518-.441,15.034-.951,22.557-1.273a121.076,121.076,0,0,1,18.115.58c3.2.343,6.43.422,9.648.577,6.46.311,12.926.511,19.38.91,5.2.321,10.38.882,15.571,1.311,1.974.163,3.959.206,5.931.385,5.507.5,11,1.216,16.517,1.527,8.969.506,17.951.841,26.931,1.1,10.26.292,20.525.432,30.789.589a14.4,14.4,0,0,0,2.343-.562c2.423-.4,4.851-.775,7.287-1.08.271-.034.607.445.552.4,2.253-.971,4.178-1.994,6.223-2.636,3.04-.955,4.889-3.057,6.35-5.7.961-1.739,1.975-3.452,3.021-5.141,1.754-2.832,3.545-5.642,5.336-8.451,1.421-2.229,1.13-4.285-.351-6.407a19.947,19.947,0,0,0-7.344-6.279c-5.459-2.81-11.1-5.261-16.66-7.881-.291-.138-.494-.462-1.09-1.041,7.618.016,14.717-.082,21.811.074a196.249,196.249,0,0,0,26.022-1.126,10.117,10.117,0,0,0,8.1-5.125c2.58-4.382,5.349-8.653,8.074-12.949C332.126,149.709,332.109,148.666,330.132,146.441ZM297.008,73.4l1.484,1.014-.18.445a3.225,3.225,0,0,1-1.1-.271c-.256-.174-.353-.584-.52-.89Zm-280.2-9.29-.015-.312,1.807-.031.018.194Zm54.86-30.988.175.707-2.362.581-.173-.7Zm-8.781-1.1.179.354-1.442.794-.309-.419Zm.74,4.377L49.422,39.88C54.828,36.665,60.947,35.172,63.629,36.4Zm-25.1,96.839c1.257-1.786,3.481-1.618,5.187-2.1,4.3-1.2,8.782-1.755,13.193-2.551a1.614,1.614,0,0,1,1.291.312Zm21.288-3.065c-.632,1.808-1.545,2.722-3.545,2.023-.853-.3-2.071.465-3.128.725a3.642,3.642,0,0,1-1.763.088C53.553,129.968,57.3,132.318,59.814,130.174ZM49,132.918c-1.227,1.994-2.915,1.684-4.9,1.228C45.6,132.292,47.3,132.952,49,132.918Zm-7.135,2.4-7.35,1.658a12.011,12.011,0,0,1,7.215-2.5ZM46.1,121.855l1.408-.185.1.357-1.467.123Q46.114,122,46.1,121.855Zm2.649-80.817.2.554-1.575.593-.169-.394Zm-4.065,68.852c-1.9.784-3.21,1.332-4.526,1.866-1.428.579-2.861,1.145-4.678,1.872C36.48,110.47,39.336,109.3,44.679,109.889Zm-10.637-.047.229.388a6.133,6.133,0,0,1-.937.561,5.276,5.276,0,0,1-1.016.188l-.065-.274Zm18.284-.59.551,1.01c-.775.5-1.514,1.333-2.334,1.423-2.249.247-4.139,1.4-6.206,2.086-2.131.707-4.2,1.6-6.349,2.258a31.619,31.619,0,0,1-6.651,1.32C38.2,114.242,44.933,110.829,52.326,109.252Zm-21.872,4.9.391.856-3.857,2.042C27.372,114.729,28.913,114.441,30.453,114.151Zm3.929,19.5c1.323-.206,2.576-1.587,4.017-.387l-11.931,3.311A16.694,16.694,0,0,1,34.382,133.655Zm-6.061,4.471.078.621-2.717.328-.071-.562Zm-3.382,4.244c2.225-1.313,28.786-7.927,34.9-8.677l-.406,3.614c-6.027.82-11.677,3.469-17.978,3.014.044-.088-.028,0-.009.031.046.086.208.194.194.218-.2.345-.37.912-.65.977-1.8.417-3.623.724-5.518,1.083l.3-1.324c-3.752.506-7.253,2.27-11.378,2.336C24.708,142.885,24.741,142.488,24.939,142.371ZM52.99,162.719c-1.788,1.846-1.493,4.026-4.115,5.138-2.116.9-4.262-.633-6.212,1.151a2.612,2.612,0,0,1-1.643,2.8,15.415,15.415,0,0,1-7.8,1.625C35.705,170.486,47.366,164.358,52.99,162.719ZM33.8,151.631l7.838-.651q0,.383.008.765l-7.819.133C33.817,151.8,33.808,151.713,33.8,151.631Zm14.295-9.75-.139-.614,3.637-.906.2.775Zm5.071,15.235L48.528,159.1A4.835,4.835,0,0,1,53.165,157.116Zm-2.887,11.254a3.475,3.475,0,0,1,1.518-.257c2.392.058,4.783.166,7.378.263l.5,2.561-17.408,2.138-.112-.763C44.858,170.993,47.555,169.655,50.278,168.371Zm3.447-28.347,4.573-1.008c.379,1.507.009,2.319-1.193,2.309S54.288,142.275,53.725,140.024ZM31.316,152.471l-2.578.044q0-.143,0-.285l2.578-.044C31.313,152.281,31.315,152.376,31.316,152.471Zm-9.016-9.5,1.513-.026q-.008.232-.017.464l-1.5.026Q22.3,143.2,22.3,142.968Zm-1.74-5.089.1.325-2.164.713-.12-.4ZM16.1,139.06l.149.758-3.365,1.147-.2-.571Zm9.666,22.748c-4.765-.174-9.545.1-14.32.177q-.014-.348-.028-.7l9.318-.158c-5.788-.435-11.615-.274-17.471-3.506,5.494.356,10.312.892,15.132.917,4.883.024,9.768-.458,14.652-.719C31.123,160.28,29.028,161.926,25.763,161.808Zm15.131,29.645-6.5.11,5.277-1.1a9.716,9.716,0,0,0-5.985-.789,9.233,9.233,0,0,1-6.933-1.264l15.524-.263Zm3.633-9.277-.179-.814,9.444-1.291C51.14,182.153,47.642,181.3,44.527,182.176Zm9.152-3.576-.008-.648,6.246-.8.083.56Zm9.649-48.355-.182-.957,4.737-.444.078.464Zm3.833-17.987a3.757,3.757,0,0,0-1.728.23c-2.323.494-4.642,1.008-6.963,1.514l-.233-.84,8.411-2.611c2.33,1.567,5,.162,7.426,1.052C71.777,112.194,69.559,113.045,67.16,112.257Zm9.954-2.207c1.7-1.026,4.538-1.044,9.343.166C83.349,111.111,80.238,111.568,77.114,110.05ZM161.054,205.5c1.1-1.029,2.028-.37,2.9.221Zm16.806-1q.026-.236.052-.472l2.108.206q0,.3,0,.606ZM286,140.4c.146.048.134.571.176.933-2.041,1.61-3.995.036-5.921-.441-.605-.15-.987-1.2-1.471-1.842l.509-.718C281.532,139.011,283.778,139.668,286,140.4Zm-6.228-14.533,10.137-.172q.018.247.036.495l-10.168.172Q279.774,126.118,279.771,125.87Zm14.1,18.817c-.942-.231-1.9-.483-3.413-.884C293.029,143.379,293.107,143.371,293.872,144.687Zm-6.787-2.094c-.34-.143-.463-.8-.659-1.284,1.655-.918,3.159-.313,4.723.58A3.464,3.464,0,0,1,287.084,142.593Zm9.182-1.254a112.628,112.628,0,0,1-10.947-3.657,15.433,15.433,0,0,1,3.544.175c3.675,1.039,7.311,2.222,10.937,3.426,1.19.4,2.743.528,2.714,2.35C300.423,142.883,298.381,142,296.267,141.339Zm.588,4.085-2.826-.7C294.86,143.9,295.626,144.01,296.855,145.424Zm-4.976-7.738a9.334,9.334,0,0,1,5.456.554c2.614.895,5.169,1.962,7.746,2.966.065.025.144.193.119.233-.049.079-.167.114-.363.231Zm6.651,6.4-.492.993-.169-1.058Zm5.679,3.588c-2.246-.28-4.664-.144-6.112-2.394C300.559,144.99,302.132,146.988,304.209,147.679Zm-1.59-4.018c.493-.285,1.044-.792,1.437-.69a12.252,12.252,0,0,1,4.685,2.219Zm-4.289-11.877,11.257-.191A22.268,22.268,0,0,1,298.329,131.784Zm5.14-6,1.544-.112.043.425-1.537.186Q303.494,126.029,303.47,125.78Zm.291-11.209c1.611.87,3.159,1.856,5,2.949-2.663.449-4.872.576-6.669-1.323a1.9,1.9,0,0,0-1.083-.6c-4.034-.353-7.552-2.2-11.175-3.758a9.463,9.463,0,0,0-3.045-.7c3.833,2.525,8.387,3.726,12.164,6.321l-.153.72-23.473-.148c.544-1.152.87-1.754,1.119-2.386,1.406-3.559.174-6.613-3.431-7.811-2.562-.851-5.264-1.284-7.906-1.9-.494-.115-1-.19-1.518-.287-.062-.414-.216-.745-.134-1,1.355-4.162,1.362-4.163,5.705-3.165,1.018.234,2.028.5,3.042.748a29.3,29.3,0,0,0-2.921-1.473,36.147,36.147,0,0,0-3.515-.942l1.087-2.2a4.6,4.6,0,0,0,4.412,1.639,5.535,5.535,0,0,1,6.14,3.089l-5.293-.195c4.27,1.347,8.586,2.53,12.772,4.067,4.4,1.616,8.7,3.527,13.009,5.4C299.9,112.5,301.838,113.533,303.761,114.571Zm-34.128,22.682c2.421.158,4.849.339,7.242.715,1.207.19,1.175.39,1.167,2.548l-11.468-2.536q0-.259-.009-.518A22.1,22.1,0,0,1,269.633,137.254ZM265.686,136l.012-.23,2.256.173-.035.422Zm9.938-9.914,1.439-.155q0,.217.01.435l-1.434-.059Zm2.065-27.943-.159.619-8.7-2.243.156-.608A22.253,22.253,0,0,1,277.689,98.142Zm-5.482-3.234.075-.378,5.215,1.037-.245.637Zm16.638,6.594c.4.155.666.665.969,1.072-3.5-1.137-6.974-2.3-10.449-3.46l.058-.392a30.857,30.857,0,0,1,3.228.642C284.739,100.006,286.81,100.713,288.846,101.5Zm-5.619-3.447.3-.746,5.992,1.926-.177.578Zm4.21,6.2-1.027,1.062-.474-.891,1.221-.541ZM279.993,102a2.578,2.578,0,0,0,2.972.4c1.209-.476,2.509.457,2.864,2.01-.553.172-1.154.527-1.63.4-1.869-.49-3.693-1.153-5.5-1.74C278.794,102.016,279.031,101.27,279.993,102Zm10.208,4.765.129-.51,3.2.717-.278.819Zm5.279-2.214-5.4-1.881C292.271,101.827,293.834,103.374,295.48,104.546ZM284.752,90.855l6.73-1.19C287.9,91.879,287.461,91.964,284.752,90.855ZM272.739,78.642c.585-1.6,1.138-2.969,1.586-4.37.811-2.539.29-3.415-2.291-3.894-1.125-.208-2.271-.3-3.406-.46-.871-.12-1.84-.34-1.452-1.466.135-.392,1.177-.772,1.717-.674a59.127,59.127,0,0,1,7.605,1.7c4.854,1.564,9.643,3.33,14.437,5.072a21.946,21.946,0,0,1,2.947,1.743C286.625,78.435,279.94,78.771,272.739,78.642Zm-3.978-42.05q2.808.914,5.594,1.852C272.229,38.469,270.2,38.24,268.761,36.592ZM274.7,62.227l-.1.615-3.452-.68.055-.4Zm-3.672-14.555-3.081.052-.011-.236L271,47.436Zm12.422,22.664.194-.652,3.566,1.29-.169.523Zm10.037.5a11.5,11.5,0,0,1,2.239,1.762l-.375.534c-2.607-1.2-5.194-2.439-7.832-3.561a18.452,18.452,0,0,0-3.232-.864c-1.828-.407-3.652-.869-5.5-1.109-1.155-.15-2.529-1.557-3.544.345-.069.129-.6.071-.9.006-2.122-.462-4.239-.948-6.336-1.421.276-3.359.36-3.549,3.177-2.845,5.682,1.419,11.533,2.268,16.828,5.05C289.723,69.639,291.7,70.038,293.483,70.839ZM279.737,47.346l2.841-.216.161.378-2.985.051Zm7.091-8.453a7.308,7.308,0,0,1-2.114.011c-9.088-3.4-18.161-6.834-27.831-10.489C260.588,28.287,280.751,35.463,286.828,38.893Zm-18.546-2.469a8.546,8.546,0,0,1-5.84-2.169Q265.369,35.332,268.282,36.424Zm-6.3-2.377-3.409-.2.067-.64A4.394,4.394,0,0,1,261.977,34.047ZM242.545,17.515l1.709.187-.011.2-1.734.029Zm-8.42-2.03,1.465.336,0,.466L234.016,16Zm3.659,19.445c2.062.142,4.142.038,6.2.2,2.375.187,4.753.444,7.1.86,2.068.367,2.413.228,3.162-2.365,5.739.6,10.641,3.564,15.824,5.685l-37.792.641c-.162-.538-.237-.649-.217-.738C233.113,34.577,233.112,34.609,237.784,34.93Zm19.867,96.508,1.369.079-.071.654-1.358-.452Zm-1.758-77.8c0-.043.005-.085.008-.128l2.615-.044-.025.4Zm-11.655.735c1.641-.69,1.641-.69,4.385-.074Zm2.249,6.984-2.27.038,0-.21,2.269-.038Zm-8.064,83.888-3.716-.777c1.832-1.616,3.637-.7,5.222-.9a48.667,48.667,0,0,1,5.3-.134l2.053-3.672L271,144.54l.171-.776c-3.788-1.088-7.681-1.776-11.552-2.54-3.979-.784-7.96-1.552-12.1-2.359.475-2.175,2.107-1.984,3.446-1.972a65.387,65.387,0,0,1,13.659,1.658c11.126,2.477,22.239,4.993,33.052,8.661,3.363,1.141,6.737,2.248,10.1,3.392a2.05,2.05,0,0,1,1.247,1.2l-5.728.1-5.547.094-.651-1.938-1.294.5.993,1.412c-21.875.555-43.4-.452-65-.953C232.663,146.589,233.608,145.746,238.424,145.249ZM301.1,160.043l-2.838.048c.466-.276.589-.408.718-.415.6-.032,1.2-.03,1.8-.036.1,0,.268-.009.285.034A1.213,1.213,0,0,1,301.1,160.043Zm-4.842-.319q0,.179,0,.358a2.4,2.4,0,0,1-.732.276q-7.008.142-14.017.249l-.045-.707c.913-.064,1.825-.161,2.739-.187,3.022-.085,6.045-.167,9.069-.2C294.259,159.5,295.256,159.649,296.253,159.724Zm-34.526-.541,16.247.34q-.01.308-.021.616C273.945,160.615,263.49,160.232,261.727,159.182Zm7.237,4.331-1.968.033q0-.184,0-.368l1.919-.033Q268.939,163.33,268.963,163.513Zm-19.375-3.835q.147-.713.293-1.423c-.064-.058-.125-.166-.193-.169a37.089,37.089,0,0,1-5.821-.645c5.141-.352,10.277-.848,15.394.005q.006.311.011.622l-6.879.117q-.015.342-.031.685l7.8.351C258.094,160.328,253.443,160.465,249.588,159.678Zm7.426,3.6-4.5.076q0-.185-.009-.37l4.5-.076Q257.011,163.1,257.014,163.283Zm8.6-.529c-2.272,1.7-3.916.516-5.559.094Zm-3.91-5.448c1.216.078,2.432.194,3.65.222a8.773,8.773,0,0,1,3.689.539l-3.638.062-3.664.062Q261.725,157.748,261.706,157.305Zm14.5,1.044q.012-.221.025-.443l5.083.289-.011.067Zm-57.247-.594,6.011.252.1-.784-4.427-.537q0-.278,0-.557c.526-.066,1.051-.175,1.579-.192,1.446-.045,2.894-.1,4.339-.06,1.512.039,3.021.184,4.532.276,2.875.176,5.75.394,8.629.48.531.016,1.078-.512,1.765-.865.5,1.141.449,1.8-1.007,1.758q-6.553-.191-13.108-.342c-.149,0-.3.221-.762.579,7.489.879,14.8.58,21.989,1.673a248.432,248.432,0,0,1-29.743-.865Q218.9,158.164,218.957,157.756Zm24.99,14.112c3.2-.858,9.221.925,12.719,3.973Zm18.344,8.213-18.17-5.785C246.551,173.683,252.879,175.7,262.291,180.081ZM225.87,173a23.867,23.867,0,0,1,12.43,1.759A29.25,29.25,0,0,1,225.87,173Zm4.893,14.2-.069.521-4.831-.6.086-.667Zm-15.548-2.222,8.155,1.062-.092.714-8.08-1.086Q215.207,185.324,215.215,184.979Zm-.655,14.194-5-.162C211.275,197.718,212.91,198.659,214.56,199.174Zm-29.688,5.27,3.333.248C186.835,205.35,186.835,205.35,184.872,204.443Zm5.876.99a8.761,8.761,0,0,1,2.64-.539,57.907,57.907,0,0,1,9.849,1.87l-12.421-.932ZM195,202.315l1.355-.023.063.445-1.326.274Zm8.405,6.358-2.032.034,0-.145,2.031.058ZM202,198.118l-.051-.266,1.778.053c0,.061,0,.123,0,.185Zm-5.978-8.1c2.764-1.3,7.179-1.109,10.531.522C202.715,191.144,199.559,190.5,196.017,190.021Zm9.723,10.054,8.769.653q-.021.294-.043.587l-8.768-.677Zm2.105,9.218,0-.159,2.015-.034,0,.159Zm4.054-1.783c-1.436-.173-3.127.654-4.433-.973l8.859-.151C214.791,207.8,214.784,207.86,211.9,207.511Zm9.186,2.315-5.846.1.119-.627,5.734.176C221.09,209.592,221.088,209.709,221.086,209.826Zm-3.329-2.69,1.627-.15.1.577-1.619.375Zm-5.987-2.614q.013-.31.025-.62c3.587-.444,7.13.572,10.706.492q.028.341.055.682Zm12.11-2.594-6.917-.387q.019-.4.038-.792l6.955.258Q223.918,201.468,223.879,201.928Zm5.738,8.524-1.38-.125q.012-.166.024-.331l1.473.068Zm-3.191-3.25,4.968.374C229.629,208.914,228,208.4,226.426,207.2Zm.88-2.408,3.908-.066c0,.147.008.294.012.441l-3.819.065Zm9.222,5.925,0-.154,2.571-.044q0,.077,0,.154Zm-.078-2.706,4.982-.084C239.662,208.941,239.534,208.949,236.45,208.013Zm.4-2.677.245-.541,2.275.714-.054.258Zm-10.262-3.3q.018-.385.036-.769l14.953.829.131.679Zm22.853,6.794-4.37.074-.02-.412c.7-.052,1.391-.136,2.088-.147.772-.013,1.545.04,2.317.064Q249.446,208.618,249.439,208.828Zm3.535-5.755-4.645.078.117-.524,9-.153c.011.174.022.348.032.521Zm-12.455-8.833c-3.929-.366-7.962.211-11.854-.324-4.139-.57-8.256-.455-12.383-.619-1.756-.069-3.517-.052-5.338-1.258l3.132-4.8c.8.038,1.625.017,2.435.128,7.155.983,14.315,1.941,21.452,3.044,1.025.158,1.937,1.051,2.965,1.641,2.092.016,1.947-2.094,2.827-3.238.869-1.129,1.531-2.417,2.407-3.836,4.557,1.615,9.006,3.125,13.388,4.811.747.287,1.2,1.327,1.806,2.031.18-.147.744-.913,1.058-.821a31.631,31.631,0,0,1,8.67,4.044C260.422,194.886,250.466,195.167,240.52,194.239Zm22.991,9.111c0-.078,0-.156-.006-.234l2.287-.165.017.36Zm4.812,5.89q-.015-.309-.03-.617l5.44-.389.052.494Zm8.007-15.508c-1-.38-1.89-1.488-3.111-.444a.611.611,0,0,1-.59-.009c-1.291-1.7-3.344-.781-4.926-1.46a47.891,47.891,0,0,0-4.922-2c-1.591-.48-1.024-1.8-1.321-2.93l-3.8-.671.833,1.729-11.6-3.952.754-2.892c7.473.807,26.95,9.118,31.415,13.663C277.786,194.283,277.057,194.009,276.33,193.733Zm4.136-2.432c.292.419.594.832.854,1.271.018.029-.279.246-.43.375l-.989-1.217Zm-1.347-.331-.28.614a5.828,5.828,0,0,1-1.816-.4c-5.886-3.593-12.281-6.011-18.771-8.209-2.947-1-5.908-1.956-8.869-2.911-.956-.308-1.43-.822-.946-1.975a7.03,7.03,0,0,1,2.351.149c1.731.737,3.291,2.109,5.066,2.439a15.51,15.51,0,0,1,5.2,1.482c1.807,1.022,4.077,1.187,6.015,2.025,2.373,1.026,4.619,2.346,6.9,3.572.818.439,1.586.971,2.374,1.466C277.274,189.8,278.2,190.386,279.119,190.97Zm-3.028-7.41-3.885-2C274.57,181.567,274.57,181.567,276.09,183.56Zm-8.938-2.122,3.259,1.163-.316.7-3.156-1.325Zm-.556-2.867-.24.624-4.708-1.776C263.908,176.217,264.919,178.258,266.6,178.571Zm3.452-8.553-7.57.128q0-.2.006-.4l7.614-.129Zm7.65-1.333c-7.642-.626-15.314-.057-22.958-.606l.093-.781,22.89.484Q277.71,168.233,277.7,168.684Zm-2.441-1.844c-9.077-.659-18.244.412-27.273-1.377,4.959-.926,9.939-.348,14.89-.21,5.066.142,10.185-.742,15.213.38l.106.817A14.24,14.24,0,0,1,275.256,166.84Zm20.418,1.439-14.871.252-.007-.353,14.944-.254Zm2.8.026c-.006-.149-.012-.3-.019-.448l1.748.051q0,.1.01.2Zm-3.015-1.9c-5.187.022-10.426.778-15.585-.608l31.192-.529q.014.333.027.667A135.526,135.526,0,0,1,295.456,166.4Zm15.3-15.832-5.236-2.017c2.269-.67,4.244-1.592,6.154.254Zm.309-6.661.065-.44,1.263.208q0,.226,0,.451Zm8.751,6.148-2.146-1.126.193-.421,2.256,1.008Z" fill="#262626"/>
</svg>
