<svg xmlns="http://www.w3.org/2000/svg" width="273.629" height="272.527" viewBox="0 0 273.629 272.527">
  <title>42</title>
  <path d="M273.609,220.782c-.077-2.848-.007-5.9-.978-8.489a62.644,62.644,0,0,1-4.082-25.251A282.181,282.181,0,0,0,268.3,152.3c-1.032-13.573-1.51-27.239-1.194-40.841.147-6.338-.447-12.584-.428-18.874.018-5.995-.967-12.006.488-17.979.672-2.757,1.259-5.535,1.82-8.319a2.445,2.445,0,0,0,1.645-.891l-1.042-2.141c.042-.216.086-.431.128-.647.89-4.547,1.685-9.112,2.509-13.671a4.064,4.064,0,0,0-.022-.855c-2.012-1.451-2.006-1.451-2.184-3.953-.206-2.89-.424-5.778-.637-8.667l-.741-.077L266.888,40.9l-.859-1.44c.065-1.773.284-3.6-.522-5.111-.033-.061.144-.234.236-.375l2.388.085-.618-1.68c1.863-.5,4.275-.5,4.289-3.164.01-1.847,2.151-4.181-.974-5.64-.3-.141.1-1.788.187-2.905l-7.122-3.531,7.026-.537c-.723-.733-1.129-1.524-1.635-1.594-2.547-.35-5.189-.985-7.665-.62a10.9,10.9,0,0,1-8.335-2.114l3.122-.353.021-.421-4.747-1.211,4.077.037c-2.521-1.617-5-3.792-7.579-.358-2-2.24-3.944-3.485-6.927-2.892a6.711,6.711,0,0,1-4.9-.883c-1.846-1.44-3.752-1.232-5.7-1.348-3.288-.2-6.589-.413-9.876-.323-2.848.077-5.9.007-8.489.979a62.646,62.646,0,0,1-25.251,4.082,282.248,282.248,0,0,0-34.745.253c-13.573,1.032-27.239,1.51-40.841,1.194-4.816-.112-9.579.2-14.349.353a3.853,3.853,0,0,0-1.066-1.432l-5.5,1.536c-1.315.036-2.631.1-3.946.159a2.984,2.984,0,0,0-.516-.6l-1.028.662q-.612.022-1.223.037l2.151-3.336-2-1.54-3.066,4.876c-.953-.026-1.9-.082-2.857-.184-1.162-1.927-2.1-3.825-4.593-3.484C72.243,5.9,74.9,3.875,72.7,1.9L69.321,3.546c-.131.992-.206,1.849-.367,2.691-.157.821-.4,1.625-.6,2.392-3.448-.109-3.482-.137-4.728-3.733L59.58,6.323,52.615,3.337a4.723,4.723,0,0,1-2.564,2.772l-1.118-.2a4.053,4.053,0,0,0-.855.022c-.157.218-.295.408-.423.581-2.035.022-4.229-.432-5.993.508-.061.033-.233-.144-.375-.236.027-.757.055-1.525.085-2.388l-1.68.618c-.5-1.863-.5-4.275-3.164-4.289-1.847-.01-4.181-2.151-5.639.974-.141.3-1.788-.1-2.905-.187L24.453,8.633l-.537-7.026c-.733.723-1.525,1.129-1.594,1.635-.35,2.547-.985,5.189-.62,7.665a10.9,10.9,0,0,1-2.114,8.335l-.353-3.122-.421-.021L17.6,20.846c.017-1.866.027-2.972.037-4.078-1.617,2.521-3.793,5-.359,7.579-2.24,2-3.485,3.945-2.892,6.927a6.713,6.713,0,0,1-.882,4.9c-1.44,1.846-1.232,3.752-1.348,5.7-.2,3.288-.413,6.589-.323,9.876.077,2.849.007,5.9.978,8.489a62.644,62.644,0,0,1,4.082,25.251,282.217,282.217,0,0,0,.253,34.745c1.032,13.573,1.51,27.239,1.194,40.841-.147,6.338.446,12.584.427,18.874q0,.57.008,1.14c-2.841,1.113-6.21-2-8.828,1l2.2,7.892c1.24.793,3.523-.128,4.72,2.023-2.049.658-3.866-2.114-5.827.047l1.295,2.012-.455.33-3.477-2.242-1.54,2,6.867,4.318c-2.236,2.266-6.135,2.713-5.658,6.2-2.18,1.221-4.2-1.437-6.177.759l1.647,3.384c.991.131,1.849.206,2.69.367.821.157,1.625.4,2.392.6-.109,3.448-.137,3.482-3.733,4.728l1.427,4.048-2.986,6.965c5.418,2.293,1.824,7.465,3.683,10.952.033.061-.143.234-.236.375L4.4,236.758l.618,1.68c-1.863.5-4.275.5-4.289,3.164-.01,1.847-2.151,4.181.974,5.64.3.141-.1,1.788-.187,2.905l7.122,3.531-7.026.537c.723.733,1.129,1.524,1.635,1.594,2.547.35,5.189.985,7.665.62a10.9,10.9,0,0,1,8.335,2.114l-3.122.353q-.01.21-.021.421l4.747,1.211-4.078-.037c2.521,1.617,5,3.793,7.579.359,2,2.24,3.945,3.485,6.927,2.892a6.713,6.713,0,0,1,4.9.883c1.846,1.44,3.752,1.232,5.7,1.348,3.288.2,6.589.413,9.876.323,2.849-.078,5.9-.007,8.489-.979a62.647,62.647,0,0,1,25.251-4.082,282.251,282.251,0,0,0,34.745-.253c13.573-1.032,27.239-1.51,40.841-1.194,6.337.147,12.584-.447,18.874-.428,2.709.008,5.421-.187,8.132-.271a3.79,3.79,0,0,0,1.325,3.488l7.892-2.2a2.111,2.111,0,0,0,.251-.608c.126.029.253.052.38.083.2.049.407.094.61.142a2.264,2.264,0,0,0,.829,1.49l1.478-.952c.273.061.547.118.82.178l-2.2,3.41,2,1.54,2.767-4.4q1.895.394,3.793.766c.928,1.5,1.927,2.7,3.956,2.426,1.22,2.18-1.437,4.2.759,6.177l3.383-1.647c.131-.991.206-1.849.367-2.691.157-.821.4-1.625.6-2.391.425.013.8.026,1.127.043l1.714.308c.836.389,1.154,1.265,1.887,3.381l4.048-1.427,6.965,2.986c2.293-5.418,7.465-1.824,10.952-3.683.061-.033.234.144.375.236-.027.757-.055,1.525-.085,2.388l1.68-.618c.5,1.863.5,4.275,3.165,4.289,1.847.01,4.181,2.151,5.639-.974.141-.3,1.788.1,2.905.187l3.531-7.122.537,7.026c.733-.723,1.525-1.129,1.594-1.635.35-2.547.985-5.189.62-7.665a10.9,10.9,0,0,1,2.114-8.335l.353,3.122.421.021,1.211-4.747c-.017,1.866-.027,2.972-.037,4.078,1.617-2.521,3.793-5,.358-7.579,2.24-2,3.485-3.945,2.892-6.927a6.713,6.713,0,0,1,.882-4.9c1.44-1.846,1.232-3.752,1.348-5.7C273.481,227.37,273.7,224.07,273.609,220.782ZM5.353,208.44l-.126-.581,2.525-.657.152.814ZM70.115,7.9q-.212-1.276-.425-2.551l.581-.126.657,2.525ZM215.172,267.3l-.657-2.525.814-.152.425,2.551Z" fill="#262626"/>
</svg>
