<svg xmlns="http://www.w3.org/2000/svg" width="273.63" height="205" viewBox="0 0 273.63 205">
  <title>51</title>
  <path d="M269.594,138.46l-.626-.8-4.338,3.51-.512-.536,4.716-4.786.808.479c.32-5.922,2-11.572,3.988-17.169a7.41,7.41,0,0,0-4.52,1.262c-.613.411-1.939.077-2.8-.262a19.583,19.583,0,0,1-4.816-2.433c-1.156-.889-1.866-2.356-2.844-3.66l3.68-.781-1.539-5.483-7.446-1.464c-1.16-3.482,2.635-4.937,3.475-7.912l-1.873-2.44-2.809,1.246-.464-.7,4-4.1c-2.833-.465-5.617-1.837-7.151-.979-3.037,1.7-3.14-.348-4.586-2.259,1.462-.464,2.571-1.233,3.421-1.011,3.067.8,3.236-3.117,5.638-3.207-1.335-1.588,1.375-4.254-1.623-5.579-.963-.425-1.388-2.066-1.715-2.594,1.641-1.932,2.7-4.2,4.451-5.029,3.71-1.752,2.719-5.252,3.692-7.983.194-.546-.677-1.549-1.185-2.249-.983-1.355-2.794-2.573-.284-4.189a1.294,1.294,0,0,0,.128-1.209,2.313,2.313,0,0,0-1.618-.565c-3.791.9-5.566.088-6.5-3.123-.671-2.306.1-3.322,3.534-4.79.408-.174.7-.615,1.435-1.284l-1.957-4.939c-2.868,2.942-3.9.966-4.93-1.02.043,1.087.086,2.174.136,3.46-1.946-1.535-1.946-1.535-.305-3.63l.452-2.5c.74.144,1.673.057,2.182.48a31.25,31.25,0,0,1,2.842,2.88c1.883-.006,3.61-.476,4.077.091.788.958,1.46,2.142,2.542,1.3a4.1,4.1,0,0,0,1.33-3.311c-.19-1.119-1.447-2.057-2.494-3.4.841-.99,1.9-3.042,2.6-2.928,2.83.458,4.264-1.273,5.887-2.678-.064-.246-.124-.492-.19-.737-4.864.146-7.1-5.6-11.548-5.994l-2.583,3.468-2.542-2.879.029.021c-2.291-3.568-5.914-2.414-9.161-2.58.865-2.434.692-5.345,4.081-6.49.661-.223,1.428-2.4,2.978-3.006a8.6,8.6,0,0,0-.308-2.052s.029-.3.032-.289c-2.919-.745-5.841-1.5-8.819-2.262.086-.763.173-1.545.242-2.158-3.347.981-6.215,1.935-9.147,2.616-.935.217-2.067-.538-3.06-.424-5.222.6-9.99-1.233-14.812-2.689-.913-.276-1.6-1.291-2.479-2.033A23,23,0,0,1,206.1,4.61c-2,1.282-6.286,1.241-7.562.013-3.013-2.9-3.013-2.9-7.017-.99-1-1.257-1.961-2.6-4.516-1.614l1.645,2.163-14.03-.517L171.638.645l-6.561-.3c.068.615.135,1.23.2,1.862-3.721-.772-7.3-2.618-11.176-.869-.354.16-1.2.067-1.273-.119C152.07-.767,151.148.68,150.046.7c-2.506.053-5.464,1.036-7.44.1-3.936-1.858-6.844-.1-10.067,1.228-.649-.559-2.205-.39-5.226-.5-3.607-.127-7.234-1.555-10.7.686-.294.19-.95-.094-1.4-.256A26.135,26.135,0,0,0,103.63,1.29c-2.82.635-5.675,1.115-8.516,1.659-2.9-.593-4.115,1.662-5.221,3.522C88.446,8.9,86.3,8.4,84.361,8.142c-2.411-.317-1.98-2.446-1.672-4.231a77.77,77.77,0,0,0-8.431-.223A64.869,64.869,0,0,0,66.528,5.2c-.053.794-.114,1.7-.175,2.613.15.291.4.751.384.759-2.076,1.2-4.056,2.819-6.3,3.394-2.36.6-5.036,2.074-7.472-.24A43.423,43.423,0,0,0,49.07,8.6c-.168-.126-.588.085-1.152.187.353,1.052.693,2.067,1.007,3.008-1.243,1.558-2.555,1.708-4,.66-1.6-1.161-3.228-2.289-4.735-3.56-4.377-3.694-6.871-3.709-11.143.122-1.6,1.434-3.07,3.012-4.7,4.4-3.876,3.3-6.491,3.514-10.394.974,2.893-2.595,4.171-3.743,3.916-5.55A42.133,42.133,0,0,1,5.886,12.3L1.65,17.291,5.713,22.3,2.925,29.583,6.978,34.09l-1.6,1.888a4.971,4.971,0,0,1,.867,1.1c1.841-1.143,3.427-.224,7.584,2.209,2.158,1.263,3.676,2.6,3.8,5.675L9.586,46.609c-.4,2.736.184,4.579,2.742,5.341a39.052,39.052,0,0,0,6.366,1.789c2.476.292,3.336,1.006,2.049,3.38-.182.335.063.9.111,1.362q.188,1.1.376,2.206l2.251-2.5q.06.244.12.488L20.1,64.1l3.1-2.8c3.147,1.092,3.139,1.065,7.918-.357.549-.163,1.268.335,1.873.255a36.269,36.269,0,0,0,3.895-1.037c-1.377,2.24-1.926,4.146-3.178,4.933-1.876,1.177-4.242,1.58-6.406,2.29-2.5.822-5,1.67-7.532,2.413-2.157.633-3.673,2.386-6.414,2.329-2.256-.047-4.558,2.127-7.186,3.5,2.086,3.591-.356,5.533-3.14,7.316-.554.355-1.3.561-1.647,1.055A19.179,19.179,0,0,0,0,86.833c3.47.153,6.312.075,9.092.456a47.85,47.85,0,0,1,8.784,1.961,90.621,90.621,0,0,1,8.513,3.844c-4.486,2.972-.283,5.474-.551,8.187l-3.651,4.3.309.345,4.031-2.8c1.623,3.231-2.672,6.368,1.494,8.833l-.853.71-5.263-2.091a49.813,49.813,0,0,0,1.873,7.445,64.7,64.7,0,0,0,4.211,7.518c-3.336,1.981-4.687,4.48-3.936,7.909,6.659,2.98,6.659,2.98,6.7,6.752l7.371-1.633c-.332,2.347,2.012,5.134-2.18,5.893-.191.035-.455.54-.423.794.364,2.9-1.937,2.984-3.744,3.65-1.884.7-3.735,1.482-5.6,2.228l.28.737,21.429,1.886c.426,2.98.262,3.387-1.771,4.05-2.244.733-4.5,1.426-6.753,2.136q-.008.515-.017,1.03l5.9,1.6a7.526,7.526,0,0,1-.44,1.733c-3.338-.1-5.236,2.563-7.788,3.938l1.515,3.586c-2-1.168-3.256-2.53-4.39-2.438-3.033.246-5.5,3.146-8.95,2.131-.208-.061-.716.6-.939,1.011-.116.211.088.6.146.892,3.653,1.289,6.716-.467,10.183-2.338l1.286,4.67c-2.922.163-5.313.64-6.129,3.3,3.51,2.574,6.78,1.353,10.018-.6.2-.123.627.119.948.19l.092,0c.786,1.383,1.405,3.52,2.449,3.754a21.42,21.42,0,0,0,5.668.22l2.7,5.3c-2.283.4-4.343,1.081-6.391,1.043-3.2-.059-5.794,2.4-5.12,5.274q1.578.65,3.215,1.2l.042-.116c.123.084.244.166.366.249a48.026,48.026,0,0,0,5.761,1.482,5.412,5.412,0,0,0,1.995-1.935,2.322,2.322,0,0,1,2.212-.262c2.271,1.316.706-1.776,2.1-1.915l4.61,2.548a10.681,10.681,0,0,1,3.133-1.812c1.524-.34,3.884-.693,4.681.126,3.164,3.254,7.608,4.059,11.146,6.494.2.14.617-.03.934-.056l.533-1.888,3.147,1.874-.6,3.268L83.874,205c2.343-3.516,4.75-3.75,7.078-1.374,4.611-4.481,10.153-3.609,15.787-2.853l-1.224-3.328,5.253,2.488c2.816-2.112,2.962-2.109,14.425.306l2.783-2.627,2.959,2.772c3.665-2.031,7.458-3.328,11.536.1a12.7,12.7,0,0,1,1.877-1.344c2.252,2.234,3.811-1.169,6.178-.594,4.985,1.213,10.244,1.938,15.218-1.5l2.91,4.366c1.112-.7,2.311-1.468,3.529-2.208.447-.272,1.292-.748,1.357-.664,1.874,2.394,4.041-1.183,5.816.272,2.21,1.813,4.407.185,6.59.143,3.527-.068,7.022-1.145,10.584.119a6.185,6.185,0,0,0,3.875.051,5.21,5.21,0,0,1,5.664,1.2l8.44-2.014-.468-4.01,18.939-5.6c.279-3.41-3.638-.853-4.507-2.4l2.925-3.444a5.1,5.1,0,0,0-4.684-4.557c-1.731-.3-3.3-1.527-4.943-2.337a37.689,37.689,0,0,1,7.64.216,7.321,7.321,0,0,1,5.545,2.477c1.357,1.548,3.386,2.55,5.231,3.593.385.217,1.267-.446,1.547-.556-1.216-1.032-2.387-1.93-3.445-2.945-2.639-2.528-2.619-2.7.3-5.857l-6.025-.4c3.385-3.986,6.106-7.554,9.222-10.734a40.127,40.127,0,0,1,7.539-5.916c2.048-1.267,3.713-2.339,4.275-4.973.28-1.314,2.022-3.376,2.954-3.3,3.166.262,3.548-1.845,3.9-4.585l3.193,4.169.73-.384c-.2-.975-.392-1.949-.705-3.511,1.4-.12,2.907-.686,4.03-.256a10.949,10.949,0,0,0,2.366.541,5.8,5.8,0,0,1-.241-1.118A35.168,35.168,0,0,1,269.594,138.46Zm-.031-6.618q.049.419.1.838l-2.768.293-.111-.792ZM7.594,24.131c-.259-.292-.253-.819-.361-1.245.416-.012.952-.187,1.216.008s.3.763.529,1.459C8.323,24.266,7.788,24.35,7.594,24.131ZM6.772,82.105c.554-4.478,5.047-3.05,6.4-5.478.016-.029,1.219.6,2.295,1.14Zm23.915,40.866a16.168,16.168,0,0,1-2.709-.418l.388-1.626,2.78.457C30.993,121.94,30.835,122.973,30.688,122.971ZM28.83,14.116q-.018-.6-.036-1.208a16.023,16.023,0,0,1,2.126.011,6,6,0,0,1,.09,1.213Zm2.261-4.142L38.149,8.6l4.094,3.822C36.123,15.117,35.316,14.923,31.091,9.973ZM46.973,180.065c-2.258.834-4.244.167-6.063-1.423l6.182.322Q47.033,179.514,46.973,180.065Zm5.913-27.573,5.019-.609C56.555,154.42,55.413,154.412,52.886,152.492Zm37.725,48.263c-.28-.223-.24-.846-.344-1.291.59-.095,1.284-.419,1.735-.213.353.161.4.982.817,2.162A7.753,7.753,0,0,1,90.611,200.754Zm.935-17.252c.04-1.826.059-2.661.077-3.5l1.1.127ZM91.428,8.855c.3-1.93.142-3.059.634-3.634a14.163,14.163,0,0,1,2.957-2.173l1.536,2.193Zm81.914,170.156c-.049.142-.688.267-.735.193a7.814,7.814,0,0,1-.557-1.229l1.431-.236A5.2,5.2,0,0,1,173.342,179.011Zm38.488,3.736.9-2.981,5.691,1.452q0,.453.008.906Zm11.719-1.733c-3.485-1.107-6.256-1.854-8.89-2.934-.527-.216-.534-1.7-.8-2.646l4.674-1.312ZM217.15,35.7c.819-3,2.337-2.872,4.923-1.218ZM223,31.767c3.649-1.307,3.2,2.031,4.46,3.242C224.389,35.8,223.748,33.94,223,31.767Zm11.628,2.82c-5.71-2.124-5.71-2.124-4.4-5.8l6.132,3.092Zm6.553-1.611a9.645,9.645,0,0,1-.768-.891l3.036-1.713.476.675C243.014,31.7,242.112,32.363,241.178,32.976Zm1.316,102.933c1.993.3,3.535-5.251,6.139-.547C246.55,136.561,244.795,138.169,242.495,135.91Zm7-29.836c-1.034-2.852-1.034-2.852,2.768-5.161Zm7.978,11.651-1.934-2.548.8-.553,1.678,2.718Zm4.667,17.558-1.481-3.833,4.68.067Z" fill="#262626"/>
</svg>
