<svg id="Layer_1" data-name="Layer 1" xmlns="http://www.w3.org/2000/svg" viewBox="0 0 2258.34 756.27"><defs><style>.cls-1{fill:#736316;}</style></defs><title>register-button</title><path class="cls-1" d="M2344.76,907.39c-4.37-9.68-4.08-21.35-6.53-32-4-17.29-5.33-35.47-13.55-49.8a113.45,113.45,0,0,1-24.66,5.61c-17.5-.18-35-1.74-52.46-3.38-13-1.23-15.13-6-13.83-20.5a102.28,102.28,0,0,0-1.33-30c-3.41-16-6.91-18.34-23.44-19.77-20.06-1.74-40.12-2.88-60.18-4.4q-25.17-1.89-50.31-4.09a13.87,13.87,0,0,1-13.87-12.39c-2.69-16.94-5.25-33.89-8.47-54.73,12.91,3.46,22.93,6,32.81,8.93,1.14.34,1.54,3.14,2.77,5.93a55.36,55.36,0,0,0-8.92.29,44.69,44.69,0,0,0-7.47,3.09c13.44,10.09,15.87,10.34,38.62,4.21l-7.39-5.91,2.12-2.76,29.16,2.64-5.1-56.52c7.67,1.42,14.14,2.9,20.69,3.78,13,1.75,15.56-.92,12.26-14.09-4.71-18.79-9.76-37.51-15.44-56-5-16.44-11.12-32.55-17-49.69-16.26,15.91-18.79,15.22-25.39-4.61a53.29,53.29,0,0,0-1.8-5.8,22.75,22.75,0,0,0-22.5-15.87c-30.22-1-60.26-6.62-90.48-7.71-15.43-.56-23.09-7-31-22,19.51.41,36.21-.35,52.64,1.39,29.36,3.05,58.51,8,87.85,11.4,39.43,4.53,79.05,7.87,118.51,12.45a305.71,305.71,0,0,0,72.89-3.32c8.54-20.53,1.33-36-5.24-51.07-7.46-17.11-16.71-33.43-24.53-50.39-5.86-12.72-10.69-25.91-16.86-41.08-13.39,15.6-29.75,17-47.09,14.83-3.33-.42-6.75-.12-10.13-.27-24.69-1.06-25.26-1.47-32.62-24.35a71.44,71.44,0,0,0-2.58-9.78c-6.76-13.6-13.84-27-20.16-39.19a241.71,241.71,0,0,1-25,3.52c-23.52.69-47.1.77-70.65,1.08-9.83.13-14.11-6.69-17.74-14.25q-13.92-29-27.77-58c-6-12.56-12.08-25.08-18.25-37.86-17.17,12.75-22.41,14.7-41.3,15.43-40,1.53-80.07,1.07-119.66,8.19a134.08,134.08,0,0,1-18.14.69c-20.75.8-41.5,1.78-62.25,2.41-16,.49-32,.58-48,.82-5.88.09-11-10.38-17.54-1.25-27.84,1.23-55.66,2.54-83.5,3.61-6.05.23-12.17-1-18.2-.62-31.37,2-62.71,4.63-94.07,6.54-20.62,1.26-41.31,1.51-62,2.54-24.7,1.23-49.36,3.2-74.07,4.11-18,.69-36.15-.34-54.2.24-14.7.47-29.34,2.67-44,3.26-29.05,1.18-58.72-1.3-87.12,3.61a422,422,0,0,1-64,3.64,983.82,983.82,0,0,0-103.87,8.45c-17.2,2.2-34.58,3.1-51.87,4.15-9.4.55-18.94-.74-28.25.28-40.54,4.41-81,9.61-121.55,14-17.29,1.89-34.88,1.78-52.16,3.93-22.42,2.81-44.61,7.52-67,10.32a294.23,294.23,0,0,1-34,.43,105,105,0,0,0-14.08.38c-22.5,3.22-44.92,6.92-67.42,10.05-33.25,4.64-66.49,9.36-99.82,13.28-42.71,5-85.84,7.36-128.2,14.4-42.2,7-84.55,7.14-126.87,9.91-10.93.69-19.61-.83-26.1-11a124.16,124.16,0,0,0-15.21-16.71c-10.32,5-10.65,11.75-10,19.81,2.08,26,14.53,51.33,5.49,78.3a35.88,35.88,0,0,0,.92,14c.5,4.48,1.21,8.94,2,14.38-10.28-.69-15.26,2.82-14.09,12.67,1.84,15.39,3.79,30.8,4.84,46.26A268.15,268.15,0,0,1,159.2,513a248.21,248.21,0,0,0-34.13-6A253.14,253.14,0,0,0,91,510.3a111.42,111.42,0,0,0,1.85,52.75c2.92,13.49,2.18,28.19,12.39,40,4.38,5.07,7.87,8.91,14.65,8.22Q150,608.22,180,605c14.65-1.55,29.28-3.17,43.39-4.71,9.08,18.44,9.53,20.93,6.48,35.85l-17.72.11a246.08,246.08,0,0,0-5.54,98.43c3,17.63,6.82,31,24.47,35,6.3,16.26.19,34.22,11.26,46.28l70.11,6.1c3.91,19.15,8.67,36.46,34.22,33.27,5.88-.74,7.76,5.84,6.73,12.22a35.74,35.74,0,0,0-.08,16.8c1.6,4.5,6.88,7.68,12.18,13.14l6.11-32.87,2.56.25,8.68,39.84c8.36-.2,17.4-2.51,24.9-.08,9.21,3,15-4.09,22.61-4,12.55.22,25.17.2,37.63,1.52,34.17,3.6,68.25-1.55,101.36-6.5,32.63-4.84,65.67,4.35,97.41-6.57,18,5.53,35.28,1.11,53.26-2.07,24.79-4.4,50.2-5.36,75.4-7.56a69.14,69.14,0,0,1,11.58,1,110.31,110.31,0,0,0,15.41,1.15c29.5-1.63,59-4.48,88.5-5.21,53-1.3,106.12-1.31,159.18-2,33.28-.45,66.28-4.68,99.87-3.11a622.06,622.06,0,0,0,93.27-2.61c13.42-1.39,29.64-8.63,42.88,4.15a9.52,9.52,0,0,0,9.06,0c7.93-12.07,20.06-6.92,29.71-6.45,33.64,1.67,67.17,5.5,100.79,7.7,11.07.69,22.3-2.08,33.33-1.39,17.07,1.11,34.09,3.41,51,6.07,9.08,1.43,18.91,8.36,26.54,6.23,10.84-3.07,19.88,3,28.87,1.48,19.14-3.14,37.41,1.22,56,2.34,3,.18,6.13-2.82,9.37-3.46,3.89-.74,9-2.16,11.76-.38,9.76,6.32,20.38,3.92,30.63,4.46,27.19,1.46,54.41,2.47,81.62,3.73,2.67.13,5.3.9,8,1.23,12.59,1.54,25.15,3.46,37.79,4.44,20.75,1.65,41.5,2.76,62.3,4,12.68.74,25.43.69,38,1.9,17.9,1.69,35.52-1.79,53.91,1.91,40.3,8.14,81.27,13.06,122.09,18.38,30.77,4,61.92,5.27,92.54,10.08a459.15,459.15,0,0,0,150.79-.29C2344.87,926.5,2350.06,919,2344.76,907.39ZM1948.34,675.9c-3.14,1.64-8.63-1.23-13.06-2.08l-.61-4.47L1953.91,654C1955.91,665,1955.34,672.25,1948.34,675.9Zm10.37,1.53,4.84-17.13,29.79,15.28,2.77-3.13-7-11.69c13.14-.94,13.21,7.92,14.94,18.67Zm58.57,3.88c1.68-20.82,5.14-22.14,23.1-11.89Z" transform="translate(-88.66 -184.96)"/></svg>