<svg xmlns="http://www.w3.org/2000/svg" width="273.63" height="279.758" viewBox="0 0 273.63 279.758">
  <title>41</title>
  <path d="M273.612,245.426a23.181,23.181,0,0,0-1.951-9.209c-1.143-2.532,1.6-6.758.54-9.4-2.712-6.758,1.915-13.928-1.858-20.369,1.983-4.564-.581-8.79-.921-13.183-.33-4.274-.472-8.5-1.082-12.806-1.849-13.075-2.46-26.324-3.537-39.31l6.47-3.906-5.483-.824-2.918-20.713-.845.077q.147,3.431.294,6.862c-2.1-.851-1.842-2.745-1.645-4.394.283-2.372,1.262-4.713,1.217-7.054-.034-1.783-1.458-3.494-1.806-5.323a117.151,117.151,0,0,1-1.882-12.668c-.429-5.488-2.09-11.372,4-16.289l3.187,20.569a62.047,62.047,0,0,0,1.42-8.385c.4-8.2.616-16.412.7-24.621.05-4.991,3.546-10.267-1.118-14.439l-4.086,1.822c-.1,2.208-1.891,5.72.835,6.128,3.742.56,1.774,3.148,1.432,3.318-3.51,1.747-2.1,4.632-1.481,7.847-.924-1.095-1.248-1.755-1.778-2.062-.1-.06-.2-.121-.3-.182.627-2.088,1.2-4.244,1.738-6.483a20.63,20.63,0,0,0-3.772,5.049,8.207,8.207,0,0,1-3-7.549c.209-2.444-.823-5.32-4.335-4.573l-2.286,6.04c-4.144-2.61-5.793-6.557-5.961-11.287-.126-3.57-.248-7.135-3.606-10.73-1.579,6.891-1.23,12.512.988,18.119a13.9,13.9,0,0,1,.761,2.56,8.9,8.9,0,0,0-3.4-1.123l2.268,2.6,1.072,1.826a8.288,8.288,0,0,1-2.705,4.1c.121-.881.274-1.767.353-2.643-.626.02-1.657.287-1.817.024-.11-.181-.215-.365-.325-.547-.237-1.254-.489-2.587-.769-4.068l-.908,1.2c-1-1.751-1.965-3.494-2.9-5.165a21.235,21.235,0,0,1-3.852.119,22.319,22.319,0,0,0-3.566-8.881l-2.874,3.816c-4.231-2.9-4.454-7.21-4.985-11.439.105.058.207.122.313.179.86.463,1.723.915,2.574,1.377a9.76,9.76,0,0,1-.7,1.51l3.83,3.441q-.055-1.635-.175-3.213a15.487,15.487,0,0,1,6.32,7.169c.55,1.331,2.871,1.93,4.92,3.2.127-5.326-2.962-7.311-6.05-9.381-1.859-1.246-3.673-2.56-5.47-3.9a51.427,51.427,0,0,0-4.47-16.057c-.281,4.957,2.642,9.7,2.359,14.473l-.255-.192a47.924,47.924,0,0,0-3.976-2.695,11.053,11.053,0,0,0-1.493-3.195l-.6,1.977c-1.7-.938-3.444-1.788-5.213-2.577-.657-3.249-1.388-6.493-4.83-9.746l1.642,8.391q-1.73-.7-3.48-1.359l-.8-.984c-.024.224-.035.442-.055.664-2.024-.754-4.058-1.485-6.087-2.228a77.436,77.436,0,0,0,5.936,5.1c-.015,1.33.043,2.627.147,3.907l-1.28-1.685c-.256,2.863-.3,3.377,1.477,3.66.152,1.283.34,2.554.553,3.819.012.069.021.137.032.206a14.358,14.358,0,0,1-4.776-3.734c-1.326-3.535-2.828-7.143-4.1-11.048l-1.434,4.652c-5.806-3.291-5.846-10.377-10.111-14.933L179.663,18.4c-4.689-6.537-5.345-6.673-11.513-2.912l.9,7.13c-1.3-1.233-2.606-2.41-3.938-3.512-.486-1.837-.98-3.671-1.509-5.495-.636-2.191-2.034-1.672-3.567-.758a6.082,6.082,0,0,1,1.488,3.52A33.151,33.151,0,0,0,143.7,10.034c-.2,1.936-.325,3.181-.45,4.4-5.259-1.576-10.426-2.011-16.037.956,1.174.777,1.915,1.614,2.768,1.752,1.367.222,2.837-.219,4.214-.028,4.963.687,9.9,2.125,14.856,2.138,5.47.014,8.1,3.106,10.8,6.757-.424.464-.546.729-.719.769a11.381,11.381,0,0,1-10.318-2.231c-2.67-2.02-7.044-1.626-10.455-2.867a23.163,23.163,0,0,0-14.565-.561,7.955,7.955,0,0,1-7.863-1.754c-1.047-.947-2.273-1.695-3.82-2.827-2.68,7.055-8.409,3.545-12.706,4.4-4.788.948-9.573-.025-12.855-4.6-1.693,3.99-3.535,2.556-6.053.822L84.859,12.8c-2.1-1.5-5.195-.986-5.508-4.208-.214-2.2-1.122-4.324-1.832-6.887-5.267,2.028-6.09,10.148-12.589,7.9L62.032,5.7,60.365,13.08l-1.349.24L53.021,0,51.906,8.357l-1.4-4.04c-1.284,2.857-1.333,5.62-1.649,8.351a25.642,25.642,0,0,1-1.222,4.244c-3.433-1.2-2.725,1.808-3.385,3.374-.408.967-.661,2-1.378,4.226-.023-6.659-.042-11.844-.06-17.029L42,7.425,39.554,28.736l-1.6.231c-2.717-4.142-1.225-9.931-4.67-14.168L29.525,24.812c-.26-3.388-.4-5.221-.545-7.1-4.062,1.414-4.583,1.238-4.888-1.853-.164-1.661-.057-3.349-.072-5.025l-.534-.026-.934,7.107-6.67-4.742c-4.312,2.431-1.243,7.479-3.463,10.917l-1.744-6.05-.853.136q-.588,3.706-1.176,7.413l-.931-.07Q7.7,19.029,7.682,12.535L6.24,12.521C4.272,16.984,5.89,22.029,4.46,27.4L.845,18.168C.482,24.413-.108,29.381.017,34.331A23.183,23.183,0,0,0,1.968,43.54c1.143,2.532-1.6,6.758-.54,9.4C4.14,59.7-.486,66.867,3.287,73.308c-1.983,4.564.581,8.79.921,13.183.33,4.274.472,8.5,1.082,12.806,1.849,13.074,2.46,26.323,3.537,39.31l-6.47,3.906,5.483.824,2.919,20.713.845-.077q-.147-3.431-.294-6.862c2.1.851,1.842,2.744,1.645,4.393-.283,2.372-1.262,4.714-1.217,7.054.034,1.782,1.458,3.493,1.806,5.323a117.1,117.1,0,0,1,1.882,12.668c.429,5.488,2.09,11.372-4,16.289L8.236,182.27a62.047,62.047,0,0,0-1.42,8.384c-.4,8.2-.616,16.412-.7,24.622-.05,4.991-3.546,10.267,1.118,14.439l4.086-1.822c.1-2.208,1.891-5.72-.836-6.128-3.742-.56-1.774-3.148-1.432-3.318,3.51-1.747,2.1-4.632,1.481-7.847.924,1.095,1.248,1.755,1.778,2.062.1.06.2.122.3.182-.627,2.087-1.2,4.244-1.738,6.483a20.637,20.637,0,0,0,3.773-5.049,8.207,8.207,0,0,1,3,7.548c-.209,2.444.824,5.32,4.335,4.573l2.285-6.04c4.144,2.61,5.793,6.557,5.961,11.288.127,3.57.248,7.135,3.607,10.73,1.579-6.891,1.23-12.512-.988-18.119a13.9,13.9,0,0,1-.761-2.559,8.906,8.906,0,0,0,3.4,1.123l-2.268-2.6q-.536-.913-1.072-1.826a8.289,8.289,0,0,1,2.705-4.1c-.121.882-.274,1.767-.353,2.643.626-.02,1.657-.287,1.817-.024.11.181.215.365.325.547l.769,4.068.908-1.2c1,1.751,1.965,3.494,2.9,5.165a21.263,21.263,0,0,1,3.851-.119,22.32,22.32,0,0,0,3.566,8.881l2.874-3.816c4.231,2.9,4.454,7.21,4.985,11.439-.105-.058-.207-.122-.313-.179-.86-.463-1.723-.914-2.574-1.377a9.778,9.778,0,0,1,.7-1.51l-3.829-3.441q.055,1.635.175,3.212a15.486,15.486,0,0,1-6.32-7.169c-.55-1.331-2.871-1.93-4.92-3.2-.128,5.326,2.962,7.31,6.05,9.381,1.859,1.246,3.673,2.56,5.47,3.9A51.431,51.431,0,0,0,55.4,257.555c.281-4.957-2.642-9.7-2.36-14.473l.255.192a47.883,47.883,0,0,0,3.976,2.694,11.059,11.059,0,0,0,1.493,3.2l.6-1.978c1.7.938,3.444,1.788,5.213,2.577.657,3.249,1.388,6.493,4.83,9.746l-1.642-8.391q1.73.7,3.481,1.359l.8.984c.024-.224.036-.442.055-.664,2.024.754,4.058,1.484,6.087,2.228a77.33,77.33,0,0,0-5.936-5.1c.015-1.33-.043-2.628-.147-3.907l1.28,1.684c.256-2.864.3-3.377-1.477-3.66-.152-1.283-.34-2.554-.553-3.819-.012-.069-.021-.137-.032-.206a14.358,14.358,0,0,1,4.776,3.734c1.326,3.534,2.828,7.143,4.1,11.048l1.434-4.652c5.806,3.291,5.846,10.377,10.111,14.933l2.216-3.716c4.689,6.537,5.345,6.673,11.513,2.912q-.453-3.589-.9-7.13c1.3,1.233,2.606,2.409,3.938,3.512.486,1.837.98,3.671,1.509,5.495.636,2.191,2.034,1.672,3.567.758a6.08,6.08,0,0,1-1.488-3.52,33.149,33.149,0,0,0,17.826,6.334c.2-1.935.326-3.181.45-4.4,5.259,1.575,10.426,2.01,16.037-.956-1.174-.777-1.914-1.613-2.768-1.752-1.367-.222-2.837.219-4.214.028-4.963-.687-9.9-2.125-14.856-2.138-5.47-.014-8.1-3.106-10.8-6.757.424-.464.546-.729.719-.769a11.381,11.381,0,0,1,10.318,2.231c2.67,2.02,7.043,1.626,10.455,2.867a23.162,23.162,0,0,0,14.565.561,7.955,7.955,0,0,1,7.863,1.754c1.047.946,2.273,1.694,3.82,2.827,2.68-7.055,8.409-3.545,12.706-4.4,4.788-.948,9.573.025,12.855,4.6,1.693-3.99,3.535-2.555,6.053-.822l-4.361,4.353c2.1,1.5,5.194.986,5.508,4.208.214,2.2,1.122,4.324,1.832,6.886,5.267-2.028,6.09-10.148,12.589-7.9l2.9,3.907,1.667-7.375,1.349-.24,6,13.32c.376-2.817.685-5.138,1.115-8.357l1.4,4.04c1.284-2.857,1.333-5.619,1.649-8.351A25.632,25.632,0,0,1,226,262.846c3.433,1.2,2.725-1.808,3.385-3.374.408-.967.661-2,1.378-4.226.023,6.659.042,11.844.06,17.029l.81.058q1.222-10.655,2.444-21.311l1.6-.23c2.717,4.142,1.225,9.93,4.669,14.168l3.761-10.013c.26,3.387.4,5.22.545,7.1,4.062-1.414,4.583-1.238,4.889,1.853.164,1.661.057,3.349.072,5.025l.534.026c.3-2.308.607-4.616.934-7.107l6.67,4.742c4.312-2.431,1.243-7.479,3.463-10.918l1.744,6.051.853-.136q.588-3.707,1.176-7.413l.931.07q.016,6.494.032,12.988l1.442.015c1.968-4.463.35-9.508,1.78-14.883l3.615,9.236C273.147,255.345,273.738,250.376,273.612,245.426ZM143.948,14.42l6.51-1.44C147.855,15.99,145.779,14.473,143.948,14.42ZM19.922,68.815l-1.111.113-.737-6.585,1.64-.069Q19.818,65.544,19.922,68.815ZM18.243,25.281q.042,2.489.085,4.977l-1.02.024q-.121-2.563-.242-5.127Zm-1.022,94.784L18.354,131.4l-1.675.076q-.471-5.643-.942-11.285Zm-4.273-61.3a35.8,35.8,0,0,1,1.35-3.943l.83.221-.555,4.9-1.034.555C13.325,59.911,12.832,59.265,12.948,58.759ZM15.273,104.7c-3.183-2.61-2.775-4.386-1.039-6.381ZM13.211,89.822l-2,.217q.073-6.059.146-12.119l1.034-.034Q12.8,83.854,13.211,89.822ZM10.8,36.6l1.4.127-1.382,7.511C9.125,41.519,10.207,39.084,10.8,36.6Zm-4.81-2.255q.675,10.447,1.349,20.894C5.756,48.258,3.46,41.338,5.986,34.344Zm4.372,109.461.353-6.081.742,0q-.026,3.092-.053,6.183Zm.932,12.828-.268-6.7,1.156.031C11.889,152.182,11.6,154.4,11.289,156.633Zm2.087-16.076c-1.831-22.707-7.189-45.761-5.909-69.5q2.684,24.006,5.382,48.009c.467,4.1.949,8.217,1.772,12.256.242,1.189,2.057,2.008,2.465,3.226a22.812,22.812,0,0,1,.553,5.177C14.82,136.273,16.16,142.445,13.376,140.557Zm11.188,72.656-1.028.4.862,2.46q-.114,1.971-.228,3.943c-.85-.451-2.184-.925-2.164-1.332.178-3.544.651-7.074,1.034-10.608l1.812.165Q24.707,210.729,24.564,213.213Zm.824-22.406c-.207,1.282-.415,2.562-.586,3.838l-.989.035q-.221,1.9-.442,3.791l-.882.207-1.2-4.464-.689.01q-.324,5.582-.648,11.165l-1.425.075q-.117-1.584-.231-3.168c.3-1.509.609-3.015.979-4.5-.409.632-.8,1.273-1.17,1.919-.1-1.3-.193-2.6-.3-3.9-.14-1.725-.4-3.441-.524-5.167q-1.4-19.3-2.756-38.6l1.581-.117c.89,10.074,1.822,20.146,2.637,30.226.19,2.344.642,3.911,3.082,5.269a9.657,9.657,0,0,1,3.561,3.372Zm2.947,25.641-.983.089q-.381-3.761-.762-7.522.319.573.694,1.141c.035-3.06.07-6.122.105-9.2.256,3.674.614,7.343.961,11.012q-.617-1.035-1.233-2.071A30.966,30.966,0,0,0,28.334,216.448Zm2.535-168.79q-.228-1.778-.455-3.555l.947-.139q.3,1.767.593,3.534ZM39.3,37.89l-3.74-5.526C40.378,32.029,40.378,32.029,39.3,37.89ZM50.24,228.021a10.7,10.7,0,0,1-1.516-1.941,12.471,12.471,0,0,1,1.532.626C50.25,227.141,50.245,227.577,50.24,228.021Zm7.331,13.288q.233-4.009.465-8.018c.35.269.7.531,1.066.783A13.584,13.584,0,0,1,57.571,241.308Zm5.149,4.5c-.7-.46-1.408-.926-2.112-1.39,1.9.877,2.684,1.269,3.148,2.186C63.416,246.329,63.077,246.038,62.72,245.805Zm66.961,19.532-6.51,1.44C125.775,263.767,127.851,265.284,129.682,265.337ZM209.874,33.155c.341.273.679.564,1.036.8.7.46,1.408.926,2.112,1.39C211.117,34.465,210.337,34.073,209.874,33.155Zm5.72,13.312c-.35-.269-.7-.531-1.066-.783a13.58,13.58,0,0,1,1.532-7.235Zm7.781,6.585c0-.436.01-.872.015-1.315a10.671,10.671,0,0,1,1.516,1.941A12.524,12.524,0,0,1,223.374,53.052Zm8.646,180.682a24.573,24.573,0,0,1,2.491-2.7c.276,1.559.713,2.439.44,2.9a2.868,2.868,0,0,1-1.938.993C232.724,234.967,231.928,233.871,232.02,233.734Zm2.313,8.133,3.74,5.526C233.252,247.729,233.252,247.729,234.333,241.867Zm7.936-6.073-.593-3.535,1.084-.159.455,3.555ZM246.347,69.6c-.035,3.06-.07,6.121-.105,9.2-.256-3.673-.614-7.342-.961-11.012q.618,1.035,1.233,2.071A30.952,30.952,0,0,0,245.3,63.31l.984-.089q.381,3.761.762,7.522Q246.722,70.17,246.347,69.6Zm16.925,66.35q-.176,3.041-.353,6.081l-.742,0q.027-3.091.053-6.183Zm-.932-12.827q.134,3.348.268,6.7l-1.156-.031C261.74,127.576,262.03,125.36,262.34,123.125Zm-13.275-56.58,1.028-.4-.862-2.46q.114-1.971.228-3.943c.85.45,2.184.925,2.164,1.332-.177,3.544-.651,7.074-1.033,10.608l-1.812-.165Q248.922,69.028,249.066,66.545ZM251.8,92.326a9.654,9.654,0,0,1-3.561-3.372v0c.208-1.283.415-2.564.586-3.839l.989-.035q.221-1.9.442-3.791l.882-.207,1.2,4.464.689-.01q.324-5.582.648-11.165l1.425-.075q.117,1.584.231,3.168c-.3,1.51-.609,3.015-.979,4.5.409-.632.8-1.273,1.17-1.919.1,1.3.192,2.6.3,3.9.141,1.725.4,3.441.524,5.167q1.4,19.3,2.756,38.6l-1.581.117c-.889-10.074-1.821-20.145-2.637-30.226C254.7,95.251,254.243,93.684,251.8,92.326Zm1.905,118.617,1.111-.113.737,6.584-1.64.069Zm1.679,43.534q-.043-2.489-.085-4.977l1.02-.024q.121,2.564.242,5.127Zm1.022-94.784-1.133-11.333,1.675-.076q.471,5.643.942,11.285Zm4.273,61.3a35.768,35.768,0,0,1-1.35,3.943l-.83-.221q.277-2.45.555-4.9l1.034-.555C260.3,219.846,260.8,220.492,260.682,221Zm-2.325-45.939c3.183,2.61,2.775,4.386,1.039,6.381C259.125,179.778,258.854,178.115,258.356,175.059Zm2.062,14.877,2-.217q-.073,6.06-.146,12.119l-1.034.034Q260.831,195.9,260.418,189.936Zm2.415,53.223-1.4-.126q.691-3.755,1.382-7.511C264.5,238.238,263.423,240.674,262.834,243.158ZM260.78,160.7c-.467-4.1-.949-8.217-1.772-12.256-.242-1.189-2.056-2.008-2.464-3.226a22.821,22.821,0,0,1-.553-5.177c2.819,3.448,1.479-2.724,4.263-.836,1.831,22.707,7.189,45.761,5.909,69.5Q263.479,184.7,260.78,160.7Zm6.863,84.718q-.675-10.447-1.35-20.894C267.873,231.5,270.17,238.419,267.644,245.414Z" fill="#262626"/>
</svg>
