<svg xmlns="http://www.w3.org/2000/svg" width="331.672" height="170.342" viewBox="0 0 331.672 170.342">
  <title>8</title>
  <path d="M331.408,56.509a14.384,14.384,0,0,1-.089-1.724c-3.01-.568-5.83-1.021-8.608-1.657-1.518-.348-3.353-.63-4.329-1.636-.924-.952-.911-2.812-1.393-4.576l-17.2,1.745-1.009-5.785c-2.155-.566-4.388,1.082-6.093-1.066l3.593-1.815-.258-.813L284.208,40.3c-.031-1.248-.385-2.318-.015-2.719,2.22-2.4,2.4-5.519,3.15-8.413,1.347-5.209.594-5.98-4.617-5.553-6.028.495-12.068.843-17.691,1.227-1.108-1.457-1.663-2.647-2.6-3.285a11.915,11.915,0,0,0-3.4-1.066c.891-1.218,2.193-2.19,2.122-3.05a11.242,11.242,0,0,1,2.038-7.435c1.062-1.591.931-2.969-.65-4.159-.5-.376-1.274-.837-1.312-1.308C260.911.5,258.3,1.16,255.679,1.686c-12.166,2.44-24.518,1.478-36.789,1.946-8.935.341-17.881.393-26.822.565-9.1.175-18.206.543-27.306.456-10.857-.1-21.711-.57-32.564-.936-18.683-.631-37.367-1.226-56.044-2C69.135,1.42,62.134.671,55.126.109c-2.8-.224-6.057-.349-7.407,2.246-2.633,5.064-6.336,7.562-12.007,7.508-1.666-.016-3.431,1.115-4.986.827-3.164-.586-5.93-.438-8.627,1.5a4.125,4.125,0,0,1-3.157.376c-2.211-.65-3.221.542-4.381,2.1l3.12,4.609c-5.133-.352-5.473,4.961-10.114,6.344l9.507,2.157a4.173,4.173,0,0,1-2.71,1.038c-2.348.156-4.7.363-7.049.382-3.475.027-2.822,3.9-5.017,5.2C.21,35.644-.278,37.77.134,40.316c5.023,1.325,9.913,2.6,14.8,3.906,2.373.633,5.285.076,6.6,3.11.192.443,1.157.552,1.764.816q.015.515.03,1.031c-1.314.42-2.656,1.252-3.936,1.165a4.128,4.128,0,0,0-4.347,2.23,40.591,40.591,0,0,1-2.649,4.518c-2.437,3.218-3.545,7.254-6.822,10.055a5.505,5.505,0,0,0-1.475,5.664c.734,2.147,2.145,2.426,3.965,2.723A16.729,16.729,0,0,1,11.91,76.9c1.549.676,2.981,1.845,4.582,2.127,2.9.512,5.893.524,8.847.746q.015.487.03.974c-1.485.168-2.967.435-4.455.482-2.584.083-4.519.784-5.564,3.529a62.312,62.312,0,0,1-4.073,8.3c-2.647,4.7-5.714,9.177-8.123,13.989-2.719,5.43-1.27,7.292,4.791,6.881.625-.043,1.228-.372,1.855-.44a45.044,45.044,0,0,1,13.825,1.034l-.7,3.253,5.329,1.5c-4.484,5.189-9.974,1.386-14.936,3.073,3.011,1.816,6.655-.523,9.04,2.892-2.157.168-4.671-.356-5.443.57-1.8,2.156-3.706,1.737-6.061,1.081,1.517,2.7,1.517,2.7,5.908,3.522.439,4.937,6.447,5.291,8.031,9.484.127.336,1.179.294,1.784.484.966.3,1.917.653,3.438,1.178-6.166,2.31-11.178,4.843-12.359,11.248a20.209,20.209,0,0,0,10.94,4.41c8.258.9,16.5,1.978,24.767,2.769,4.911.47,9.879.351,14.79.82,8.864.848,17.69,2.113,26.559,2.888q20.053,1.753,40.145,3.043c11.482.738,22.989,1.075,34.475,1.773,7.165.435,14.307,1.236,21.464,1.808a13.294,13.294,0,0,0,3.24-.308c1.981-.339,3.934-.942,5.925-1.1,2.7-.214,5.424-.053,8.133-.166a3.654,3.654,0,0,0,3.667-2.515c1.126-3.048,3.469-4.27,6.707-4.205a58.832,58.832,0,0,0,7.654-.386c5.913-.657,7.677-4.5,4.72-9.842-.4-.722-.091-1.806-.25-2.7-.186-1.041-.526-2.055-.851-3.273,1.408-.092,2.828-.222,4.25-.27,7.025-.241,14.05-.613,21.076-.623,3.525,0,6.225-.843,7.547-4.8l14.637,1.1c.324-2.028.62-3.559.8-5.1.175-1.506.775-3.312.175-4.453-.528-1-2.459-1.266-3.784-1.862-.966-5.17.478-6.028,5.54-6.072a106.943,106.943,0,0,0,13.259-1.36c2.965-.4,5.473-1.63,6.556-4.772a13.883,13.883,0,0,1,1.4-2.289,68.228,68.228,0,0,0,7.129.482c2.752-.085,5.938.426,6.935-3.5.167-.659,1.308-1.268,2.119-1.532,4.2-1.365,4.2-1.323,4.03-6.019-.028-.752.028-1.508.048-2.4l-4.871.442c.882-1.794,1.191-3.4,2.164-4.223,3.1-2.616,2.512-5.407,1.145-8.535l-14.9.734c3.078-3.3,3.234-6.336,2.878-9.571-.263-2.391-1.425-3.407-3.691-3.452l-7.54-.153a21.424,21.424,0,0,1-.965-10.768c4.38-1.329,8.556-3.316,12.883-3.731,5.781-.556,11.644-.019,17.512-.561C331.273,62.046,332.241,61.609,331.408,56.509ZM34.127,142.718l-2.863-.383.153-.8,2.807.683Z" fill="#262626"/>
</svg>
