<svg xmlns="http://www.w3.org/2000/svg" width="273.63" height="273.629" viewBox="0 0 273.63 273.629">
  <title>43</title>
  <g>
    <path d="M270.148,179.809c-.257-6.6-.536-12.895-.74-19.191-.209-6.436-.375-12.873-.565-19.309l.727-.078q-.292-3.284-.584-6.569l-.351.039c-.011-.314-.019-.628-.03-.942-.134-3.924-.456-7.841-.638-11.764-.1-2.228,0-4.469-.165-6.691-.014-.188-.035-.375-.058-.562l.146.576.58-.232-1.04-2.195c-.025-.129-.049-.258-.073-.387.443-.348.953-.688,1.007-1.088.584-4.391,1.151-8.791,1.491-13.207.28-3.631.292-7.287.334-10.932.034-2.891-.066-5.783-.121-9.619-2.511,2.678-2.273,5.225-2.31,7.54-.11,7.006.026,14.016-.051,21.023a47.978,47.978,0,0,1-.508,5.353,10.454,10.454,0,0,1-.136-1.578c.013-9.832.088-19.666.3-29.5.038-1.736,1.221-3.47,1.162-5.18-.063-1.86-1.348-3.676-1.421-5.537-.026-.675-.042-1.351-.065-2.026,1.522-2.087.624-4.108-.161-6.134-.082-4.3-.118-8.6-.141-12.9q-.023-4.385-.018-8.771l.153-.191-.153-.093q0-2.925.007-5.851l.5-.019q-.187-5.439-.374-10.88l-.1.016q0-.134,0-.267a3.975,3.975,0,0,0-2.124-3.906c-1.6,4.664.511,9.49-1.138,13.956-3.117-2.885-2.481-6.954-4.032-10.624l-1.142,2.5c-.639-.643-1.113-1.509-1.756-1.659-.68-.159-1.519.363-2.208.564l-1.6-2.146-2.606,11.16-2.122-.936c-.194-1.644,2.594-1.982,1.107-3.709l-1.621.768c-.859-1.962-.837-4.587-3.983-4.984-.026.183-.042.367-.06.551-.061-.818-.126-1.695-.168-2.254l-5.046.522c.045.6.093,1.23.163,2.169l-4.805-.235-1.385-3.682,1.7-1.96L233.6,18.3l-3.98,1.385c1-3.707,5.126-4.308,6.468-7.621l-4.53,2.711L233.967,10l-.646-.648c-4.369,2.025-10.1-.139-13.234,4.769l-2.657-.4c-.6-1.632-1.481-2.8-3.479-2.7-.208.01-.4.313-.552.438l2.47,1.254-.177.63-.46.047-12.146-1.826q.023-.313.046-.627l7.093-.58q.017-.291.034-.582L197.52,6.24l.165-.774,11.825-.021q.042-.511.084-1.021l-7.87-1.284q-.011-.21-.023-.42l8.885-1.361q-.036-.511-.073-1.023C205.621.249,200.721.3,195.841.021c-2.858-.165-4.857.589-5.539,3.46-6.6.257-12.895.536-19.191.74-6.741.219-13.484.39-20.226.591l-.017-.158-2.782.247c-1.278.04-2.557.078-3.835.122-3.924.134-7.841.457-11.764.638-2.228.1-4.469,0-6.691.165l-.067.007-.194-.487-1.56.74c-.853.16-1.7.339-2.555.426-.319-.415-.636-.852-1-.9-4.391-.585-8.791-1.151-13.207-1.491-3.632-.28-7.287-.291-10.932-.334-2.891-.034-5.783.067-9.619.121,2.678,2.511,5.226,2.274,7.54,2.31,7.006.11,14.016-.026,21.023.051a32.6,32.6,0,0,1,3.645.293c-9.292-.019-18.584-.095-27.874-.3-1.736-.038-3.47-1.221-5.18-1.162-1.86.064-3.676,1.348-5.537,1.421-.851.034-1.7.054-2.554.082-1.567-.854-3.1-.447-4.631.125-4.624.1-9.25.135-13.875.16q-3.834.021-7.669.018L51.282,6.7l-.128.211q-2.907,0-5.813-.005-.011-.281-.021-.561l-10.879.374.025.162-1.307,0A3.974,3.974,0,0,0,29.253,9c4.664,1.6,9.49-.511,13.955,1.138-2.885,3.116-6.953,2.481-10.623,4.031l2.5,1.142c-.643.639-1.509,1.113-1.659,1.755-.159.68.363,1.52.564,2.208l-2.146,1.6,10.84,2.532-.067.061c.015.268.029.529.043.792l-.593,1.343c-1.644.194-1.981-2.594-3.709-1.107l.768,1.621c-1.368.6-3.056.773-4.089,1.888-.212.065-.443.145-.705.235.062.16.135.321.211.483a4.19,4.19,0,0,0-.4,1.378c.35.05.7.079,1.055.1a2.193,2.193,0,0,1,.111.742,5.773,5.773,0,0,0,1.18,3.927l.061,2.394c-.26-.217-.553-.461-.842-.74.072,2.2.121,3.72.17,5.235l-.885.313-5.473-7.244c0,1.279-.009,2.832-.014,4.385l-.936.27L24.425,34l-2.482.185.522,5.046,2.169-.163c-.094,1.926-.174,3.558-.235,4.805l-3.683,1.385-1.96-1.7-.459.322,1.385,3.98c-3.707-1-4.308-5.126-7.621-6.467l2.711,4.53L10,43.514l-.648.646c2.025,4.369-.139,10.1,4.769,13.234l-.457,3.04c-1.45.6-2.448,1.491-2.359,3.346.01.208.313.4.438.552L13,61.862l.433.122L11.564,74.395l-.628-.046q-.289-3.547-.58-7.094l-.583-.034L6.241,79.962,5.466,79.8q-.011-5.913-.021-11.825l-1.021-.084-1.284,7.87-.42.023Q2.039,71.339,1.359,66.9L.336,66.97C.249,71.861.3,76.76.022,81.64-.144,84.5.611,86.5,3.481,87.18c.258,6.6.536,12.895.74,19.191.219,6.728.389,13.457.59,20.185l-.551.059q.292,3.284.584,6.569l.177-.019,0,.067c.134,3.924.457,7.841.638,11.764.1,2.228,0,4.469.165,6.691.011.16.031.319.049.479l-.269.107.412.869a22.462,22.462,0,0,1,.547,3.853c0,.056,0,.111,0,.167a1.173,1.173,0,0,0-.463.655c-.585,4.391-1.151,8.792-1.491,13.207-.28,3.632-.292,7.287-.334,10.933-.034,2.891.066,5.783.12,9.619a9.387,9.387,0,0,0,.813-.991A4.559,4.559,0,0,0,5.1,191.67c.063,1.86,1.347,3.675,1.421,5.537.031.8.051,1.592.076,2.388-1.38,1.984-.6,3.91.151,5.839.082,4.277.117,8.556.14,12.834q.019,3.5.019,7l-.75.934.749.455q0,2.733,0,5.466l-1.1.041q.187,5.44.374,10.879l.7-.106q0,.694,0,1.388A3.974,3.974,0,0,0,9,248.229c1.6-4.664-.511-9.49,1.138-13.955,3.117,2.885,2.481,6.954,4.032,10.623l1.142-2.5c.638.642,1.113,1.509,1.755,1.659.68.159,1.52-.363,2.208-.564l1.6,2.146,2.606-11.16,2.122.936c.193,1.644-2.594,1.981-1.107,3.709l1.621-.768c.858,1.961.837,4.586,3.984,4.984.613-4.27-1.244-8.693.747-13.043l2.178,3.362c.11-1.262.205-2.351.293-3.353l.643.707.674-.037q.186,1.876.373,3.752l.5-.036.808-3.807,2.342-.128c-.291,1.227.084,1.852,1.46,1.782a6.424,6.424,0,0,1,1.44.157l.024.948c-3.659,3.307-3.609,3.462-2.852,5.655.9-.346,1.819-1.018,2.7-.976.092,0,.18,0,.27,0l.084,3.265,7.1-.182-3.574,2.7,4.385.014.27.936L44.493,249.2c.066.879.139,1.871.185,2.482l5.046-.522c-.046-.6-.093-1.23-.164-2.169l4.805.235,1.385,3.682-1.7,1.96.322.459,3.98-1.385c-1,3.707-5.126,4.308-6.467,7.621l4.53-2.711-2.412,4.775.646.648c4.369-2.025,10.1.139,13.234-4.769l3.5.526-.463.2c.6,1.707,1.475,2.941,3.531,2.842.208-.01.4-.313.552-.438l-2.469-1.254.177-.63,2.049-.209,10.128,1.522q-.023.314-.046.628l-7.094.58q-.017.291-.034.583l12.741,3.533-.165.775-11.825.021q-.042.511-.084,1.021l7.87,1.284q.011.21.023.421l-8.885,1.36q.036.511.073,1.023c4.891.087,9.791.032,14.671.315,2.858.165,4.857-.59,5.54-3.461,6.6-.257,12.894-.536,19.19-.74,8.052-.262,16.106-.458,24.158-.717l-4.206.408q.04.373.08.747l6.569-.583-.071-.647.331-.011c3.924-.134,7.841-.457,11.764-.638,2.228-.1,4.469,0,6.692-.164.1-.007.207-.022.31-.032l.225.564,1.926-.913a15.615,15.615,0,0,1,2.732-.355.888.888,0,0,0,.47.268c4.391.585,8.792,1.151,13.207,1.491,3.632.28,7.287.292,10.932.334,2.891.034,5.783-.067,9.619-.121a9.426,9.426,0,0,0-.836-.695,4.981,4.981,0,0,0,1.4.181c1.859-.063,3.675-1.348,5.537-1.421.734-.029,1.468-.046,2.2-.071,1.635.928,3.233.472,4.828-.133,4.676-.1,9.354-.138,14.031-.163q3.292-.018,6.583-.019l1.349,1.083.523-.861-.43-.221q2.633,0,5.266,0l.033.877,10.88-.374-.072-.478,1.925,0a3.975,3.975,0,0,0,3.906-2.124c-4.664-1.6-9.49.51-13.956-1.138,2.886-3.116,6.954-2.481,10.623-4.032l-2.5-1.142c.643-.639,1.509-1.113,1.659-1.755.159-.68-.363-1.519-.564-2.208l2.146-1.6-11.16-2.606.936-2.122c1.645-.194,1.982,2.594,3.709,1.107l-.769-1.621c1.962-.859,4.587-.837,4.984-3.983-4.27-.613-8.693,1.244-13.043-.747l3.363-2.178-6.452-.563q-.02-.333-.039-.667l7.56-.752q-.018-.252-.036-.5l-4.777-1.013c.087-2.077-.985-2.011-2.095-1.894a6.744,6.744,0,0,0-2.865-4.821c-.018-.015-.035-.032-.053-.047l2.054-.306c.156.134.316.275.474.429-.005-.172-.011-.333-.016-.5l4.087-.608,2.116,2.8c0-1.279.009-2.832.014-4.385l.936-.27,4.141,5.486,2.482-.185c-.179-1.731-.353-3.409-.522-5.046l-2.169.163c.094-1.926.174-3.558.235-4.805l3.682-1.385,1.96,1.7.459-.322-1.385-3.98c3.707,1,4.308,5.126,7.621,6.467l-2.711-4.53,4.775,2.412.648-.646c-2.025-4.369.139-10.1-4.769-13.234l.275-1.826c1.7-.6,2.924-1.476,2.825-3.525-.01-.208-.313-.4-.438-.552l-1.254,2.469-.63-.177-.095-.928,1.874-12.462.627.046q.29,3.547.58,7.094l.583.034,3.533-12.74.775.165q.01,5.913.021,11.825l1.021.084,1.284-7.87.421-.023q.681,4.442,1.361,8.885l1.022-.074c.087-4.891.033-9.791.315-14.671C273.773,182.49,273.019,180.491,270.148,179.809ZM6.464,113.426l1.047-.064q.2,3.682.394,7.365l-1.16-.067Q6.6,117.043,6.464,113.426Zm1.009-21.5-.445-3.094.882,0q.116,1.5.233,3ZM8.909,145.5,8.6,142.531l.9-.115q.159,1.491.318,2.982Zm3.734-40.779q0,2.281,0,4.563l-.845.018q-.023-2.278-.047-4.555Zm.472,17.9c-1.878-2.415-2.167-6-.789-9.809C13.306,114.947,13.675,119.536,13.115,122.617Zm.745,40.008q-.071-2.278-.142-4.556l.816.059q.035,2.228.07,4.456Zm7.852,14.943q-.153-2.031-.307-4.062C23.177,174.724,22.524,176.14,21.712,177.568Zm1.307-18.474-.953-.082c-.7-1.778-.1-3.441.506-5.1l.845.073Zm7.3-116.032-.447-2.693.691-.138.671,2.666Zm2.65,179.8q-.01-1.279-.021-2.558l.579-.041.285,2.611ZM41.087,29.938c-.025.573-.186,1.189-.305,2.044-.678-.754-1.243-1.38-1.725-1.9C39.733,30.026,40.409,29.972,41.087,29.938ZM39.69,179.4q.031,2.016.063,4.033C37.69,182.066,38.679,180.736,39.69,179.4ZM38.441,206.45q.025.615.049,1.229c-.252.169-.5.342-.735.531l-.025.019q0-.878,0-1.756Zm.227,24.3v.007L37,229.914c1.2-.068,1.459-.647,1.467-1.365.18-.009.359-.013.539-.023.01-.02.02-.037.03-.056Q38.852,229.609,38.668,230.749Zm.722-9.363-.218.234-.1-.474Zm1.686,7.861c-.472.188-1.309-.54-1.988-.869a3.08,3.08,0,0,1,2.322-1.75l.063,2.445C41.34,229.132,41.209,229.194,41.075,229.247ZM45.146,32.17a14.626,14.626,0,0,1-.764-1.588.74.74,0,0,1,.054-.527,10.2,10.2,0,0,1,2.539.713q.02.1.034.195Zm5.716,211.582q-.069-.345-.138-.691l2.666-.671.165.915Zm72.709-221.18q-.036.423-.072.845l-5.112-.4q.041-.476.082-.953C120.247,21.361,121.91,21.963,123.571,22.572ZM99.328,266.6q0-.441,0-.882l3-.233q.049.335.1.669Zm.585-244.889,4.062-.308C102.757,23.177,101.341,22.524,99.913,21.713Zm14.943-7.853,4.556-.142q-.029.408-.059.816l-4.456.07Q114.877,14.233,114.856,13.86Zm.38,248.019q-.013-.446-.025-.893h4.563q.009.422.018.845Zm15.916,5.005-7.233.281q-.032-.524-.065-1.047l7.365-.394Q131.186,266.3,131.152,266.884ZM123.3,261.3c2.139-.98,6.728-1.349,9.809-.789C130.694,262.393,127.105,262.681,123.3,261.3ZM132.083,9.809q-.049-.45-.1-.9L134.95,8.6q.058.448.115.895Zm56.563-2.781q0,.441,0,.882l-3,.233q-.049-.334-.1-.669Zm-.585,244.889-4.062.307C185.217,250.452,186.633,251.1,188.061,251.917Zm-14.943,7.852-4.556.142q.029-.408.058-.816l4.456-.07Q173.1,259.4,173.118,259.769Zm-8.715-8.712q.036-.422.072-.845l5.112.4q-.041.477-.082.953C167.727,252.268,166.065,251.666,164.4,251.057ZM172.738,11.75q.013.446.026.893H168.2q-.009-.422-.018-.845ZM156.822,6.745l7.233-.281q.032.523.065,1.047l-7.365.394Q156.788,7.325,156.822,6.745Zm-3.8,258.288q-.057-.447-.115-.895l2.981-.318.1.9Zm1.84-251.918c2.416-1.878,6.005-2.167,9.809-.789C162.534,13.306,157.945,13.675,154.864,13.115Zm82.247,16.762.138.691-2.666.671q-.082-.457-.164-.915ZM234.39,83.959c1.348,1.224.462,2.425-.45,3.633q-.023-1.473-.046-2.946Q234.141,84.3,234.39,83.959Zm-.295,43.146.5,5.745C233.15,130.655,232.973,129.471,234.095,127.105Zm-2.042-39.86.829,2.5a4.85,4.85,0,0,0-1.979,1.283l-.053-2.055Zm-.667,22.58-.039-1.511A5.476,5.476,0,0,1,231.386,109.826Zm1.972,130.83-2.5.02c-.011-.2-.021-.392-.032-.586l2.541-.277Q233.363,240.234,233.358,240.655Zm1.022-14.243-.028-1.076a3.243,3.243,0,0,1,1.61.95A8.818,8.818,0,0,0,234.38,226.412Zm2.986-190.592-1.647.054-.312-.885,2.544-1.922Q237.658,34.445,237.366,35.821ZM237.8,226.5c-.014-.434-.028-.856-.041-1.275l.884-.312,1.963,2.6A12.076,12.076,0,0,0,237.8,226.5Zm1.325-189.178c.059.013.117.024.179.039.216.054.559-.393,1.031-.956l-.219,2.517a4.193,4.193,0,0,1-.783.484Q239.225,38.365,239.122,37.323Zm1.478-4-.209,2.4-1.424.046q-.161-1.613-.321-3.227l4-3.025-4.385-.014-.27-.936,5.441-4.108c-.294,3.868,1.086,7.849-.476,11.777q-.166.109-.328.229Zm2.462,193.43-.671-2.666.915-.164q.223,1.346.447,2.692Zm8-113.678-.845-.072.4-5.112.953.082C252.268,109.755,251.666,111.417,251.057,113.079Zm.86-23.658.307,4.062C250.452,92.265,251.105,90.849,251.917,89.421Zm7.108,14.984.745-.041q.071,2.278.142,4.556l-.817-.058Q259.06,106.633,259.025,104.4Zm1.962,57.866q0-2.282,0-4.563l.845-.018q.023,2.278.047,4.555Zm.317-8.09c-.98-2.139-1.349-6.728-.789-9.809C262.393,146.787,262.681,150.376,261.3,154.181Zm2.835-29.609-.318-2.981.9-.1q.156,1.483.313,2.965Zm1.581,53.579-.232-3,.669-.1.445,3.094Zm.4-24.524q-.2-3.682-.394-7.365l1.16.067q.14,3.617.281,7.233Z" fill="#262626"/>
    <path d="M268.917,111.259l-.04.036.036,0Z" fill="#262626"/>
    <path d="M121.783,4.715l-.031,0c.012.012.024.028.036.04Z" fill="#262626"/>
    <path d="M121.793,4.69a.147.147,0,0,0-.006.062l.286-.136Z" fill="#262626"/>
    <path d="M166.191,268.914l.031,0c-.012-.013-.024-.028-.036-.04Z" fill="#262626"/>
    <path d="M166.181,268.939a.147.147,0,0,0,.006-.062l-.286.136Z" fill="#262626"/>
  </g>
</svg>
