<svg xmlns="http://www.w3.org/2000/svg" width="331.672" height="222.637" viewBox="0 0 331.672 222.637">
  <title>6</title>
  <path d="M324,145.163c-8.442-1.96-16.818-4.2-25.185-6.312L304.4,132.8l-.515-.913-7.991-.193-.168-1.083,9.463-3.163c-.976-4.08-.976-4.08,3.54-6.309-.043-3.956,2.615-5.64,5.918-6.91-1.155-1.355-2.336-2.267-2.874-3.466a83.075,83.075,0,0,1-3.322-8.858c-.217-.681.437-1.624.643-2.459.418-1.7,1.409-3.56,1.02-5.058-.338-1.3-1.4-2.632-.656-3.861.642-1.062,2.023-1.676,3.35-2.7l-4.684-2.122c1.723-4.276,6,.027,8.277-2.55l-4.288-3.023,6.222-4.38c-3.727-2.942-6.485-6.014-9.926-7.648-6.965-3.306-14.286-5.87-21.492-8.658-2.22-.859-4.586-1.343-6.808-2.2A10.907,10.907,0,0,1,273.762,52c7.734-.267,13.787,5.124,21,3.618-4.856-3.062-11.815-1.332-15.669-7.041a14.284,14.284,0,0,1,1.99.285c2.584.766,5.395,1.163,7.673,2.476,3.332,1.921,4.93-1.712,7.543-1.739.266,0,.529-.292.961-.547-.164-1.793-.713-3.152-2.871-3.555a58.006,58.006,0,0,1-7.405-1.846,9.627,9.627,0,0,1-3.968-2.235c-1.108-1.178-1.417-3.091-2.494-4.315-2.4-2.728-5.034-5.592-9-5.475-8.933.265-16.4-4.687-24.723-6.554-2.751-.617-5.4-1.752-8.171-2.2-3.331-.536-6.739-.59-10.908-.914,1.372-1.246,2.022-1.92,2.758-2.481s1.546-1,2.671-1.714c-2.512-1.953-.651-3.417.124-5.052,2.223-4.69.476-7.6-4.66-7.967a79.787,79.787,0,0,1-8.522-.9C214.764,2.881,209.5,1.551,204.171.657A35.032,35.032,0,0,0,197.049.6c-6.764.272-13.525.621-20.288.926a3.387,3.387,0,0,1-.939-.171c-4.47-1.118-8.917-2.359-13.43-.036-.609.313-1.6-.215-2.345-.048-3.365.751-7.107.946-9.925,2.647a13.047,13.047,0,0,1-6.508,2.044c-4.713.258-9.434.681-14.1,1.4-1.881.291-3.578,1.123-5.484.065a3.2,3.2,0,0,0-2.293-.228C115.76,9.165,109,8.653,103.721,12.944a10.141,10.141,0,0,1-3.985,1.5c-7.931,1.911-16.117,2.641-23.741,6-3.877,1.711-8.254,2.279-12.39,3.416a13.916,13.916,0,0,0-7.328,4.269L58.4,31.8l-3.553,4.768L58.293,37.9,55.411,41.3c-.418,3.068-1.1,5.185-.885,7.205.295,2.717-1.114,3.83-2.961,5.309-3.181,2.548-5.977,5.574-8.958,8.375-4.4,4.133-8.723,8.348-13.263,12.319-2.261,1.978-4.9,3.439-6.151,6.451-.511,1.226-1.8,2.167-2.848,3.121-1.88,1.718-3.925,3.261-5.745,5.038-2.641,2.579-2.725,3.5-1.343,6.716,1.354,3.148,2.644,6.323,4.02,9.624l5.287-4.583.981.867-4.855,7.574c4.247-1.493,6.641-5.393,11.7-6.689-.68,1.622-.871,2.726-1.5,3.459-2.658,3.117-5.468,6.1-8.18,9.175C14.614,122.161,8.66,129.2,2.4,135.95c-2.539,2.739-3.028,5.363-1.639,8.669,2.984,7.1,5.883,14.241,8.809,21.347,5.948,2.135,7.845-4.441,12.291-5.766l5.162,10.2,7.177-2.406-3.954,4.158c2.991-1.614,5.767-2.689,9.266-1.748l-2.305,2.582,2,3.645c-1.614,1.637-3.207,3.177-4.706,4.8-.722.784-1.8,1.736-1.792,2.606.019,3.2.327,6.84,3.036,8.646,1.571,1.048,1.552,2.781,2.7,3.654,3.9-.3,6.58-5,11.156-2.586l-2.012,2.353c4.627,1.581,7.669-4.293,12.617-2.515l-3.11,3.643c.888.565,1.454,1.184,2.109,1.3,2.9.5,6.231.125,8.635,1.458,2.823,1.565,5.036.88,7.594.236,1.922-.484,3.882-.816,5.838-1.218l2.3,14.441,6.873-.929-4.947,4.8c9.617-2.038,18.154-3.925,26.728-5.624,3.494-.692,7.043-.872,9.575,2.5q8.17-1.375,16.369-2.758c1.82-.309,2.174.706,2.081,2.352l-8.439,3.374c10.221-.181,10.45-.156,13.623,2.031l-3.67,2.54.349.9c1.461-.323,2.939-.582,4.379-.979,11.338-3.128,22.628-6.436,34.01-9.387a195.572,195.572,0,0,1,41.367-6.277c9.075-.365,18.256-.2,27.224-2.226,2.25-.507,4.375-.111,7.3,1.71-4.887.968-8.886,1.913-12.935,2.511-3.069.454-6.2.438-9.3.7a2.376,2.376,0,0,0-1.587.714c-1.153,1.6-2.78,1.172-4.341,1.292-7.062.54-14.118,1.153-21.177,1.74l.1,1.249,65.2-4.908c-4.524-1.985-9.82-.512-14.29-3.677,3.7-2.833,8.888-.8,12.312-4.463-3.984-2.368-8.091.436-12.561-1.282,7.932-3.847,16.025-.719,24.052-2.541-.819-.683-1.534-1.486-1.7-1.385-2.692,1.642-2.308-.658-3.155-2.125,2.181-.241,3.9-.386,5.6-.63,2.03-.291,4.322-.28,4.29-3.326,0-.363.536-.735.829-1.1,1.724-2.138,3.45-4.275,5.814-7.2l9.686-.519c-2.578-.831-4.465-1.278-6.211-2.045-1.865-.819-4.372,1.52-6.06-1.263a11.368,11.368,0,0,1,1.491-.524c3.854-.7,7.933,1.007,11.7-1.18a2.891,2.891,0,0,1,2.639.678c2.121,2.361,5.277,1.942,7.8,3.169a2.6,2.6,0,0,0,2.284-.036c2.459-2.178,5.474-4.146,6.968-6.906a120.032,120.032,0,0,0,6.712-16.005C333.116,149.388,331.432,146.889,324,145.163ZM147.312,10.59l.382.948-3.064,1.137-.322-.813Zm-3.173,6.13,7.669-1.6C147.656,17.8,147.629,17.811,144.138,16.72Zm9.723,3.5-.154-1.186,4.848-.5.139,1.015Zm-1.58-5.59c4.531-2.677,7.881-.952,11.184,1.163C159.993,15.115,156.166,17.447,152.281,14.632Zm20.707,2.57c-.6-.021-1.15-1.258-2.36-2.687,4.44-.007,7.808-.789,11.6,2.38C178.518,17.058,175.747,17.3,172.988,17.2ZM199.48,205.074c4.272-4.187,5.68-4.421,9.869-1.763C206.108,205.086,202.81,205.071,199.48,205.074Zm37.817-3.931c3.433-2.373,6.77-.5,9.884-.957C244.169,201.831,240.989,201.6,237.3,201.142Zm10.107-1c2.776-1.022,2.786-1.019,5.622-.187A5.208,5.208,0,0,1,247.4,200.144Z" fill="#262626"/>
</svg>
